<svg width="56" height="24" viewBox="0 0 56 24" fill="none" xmlns="http://www.w3.org/2000/svg">
<path d="M22.684 11.818V16H22.138V14.104H20.008V16H19.462V11.818H20.008V13.654H22.138V11.818H22.684ZM26.6163 14.23C26.6163 14.334 26.6103 14.444 26.5983 14.56H23.9703C23.9903 14.884 24.1003 15.138 24.3003 15.322C24.5043 15.502 24.7503 15.592 25.0383 15.592C25.2743 15.592 25.4703 15.538 25.6263 15.43C25.7863 15.318 25.8983 15.17 25.9623 14.986H26.5503C26.4623 15.302 26.2863 15.56 26.0223 15.76C25.7583 15.956 25.4303 16.054 25.0383 16.054C24.7263 16.054 24.4463 15.984 24.1983 15.844C23.9543 15.704 23.7623 15.506 23.6223 15.25C23.4823 14.99 23.4123 14.69 23.4123 14.35C23.4123 14.01 23.4803 13.712 23.6163 13.456C23.7523 13.2 23.9423 13.004 24.1863 12.868C24.4343 12.728 24.7183 12.658 25.0383 12.658C25.3503 12.658 25.6263 12.726 25.8663 12.862C26.1063 12.998 26.2903 13.186 26.4183 13.426C26.5503 13.662 26.6163 13.93 26.6163 14.23ZM26.0523 14.116C26.0523 13.908 26.0063 13.73 25.9143 13.582C25.8223 13.43 25.6963 13.316 25.5363 13.24C25.3803 13.16 25.2063 13.12 25.0143 13.12C24.7383 13.12 24.5023 13.208 24.3063 13.384C24.1143 13.56 24.0043 13.804 23.9763 14.116H26.0523ZM28.693 12.658C28.977 12.658 29.225 12.72 29.437 12.844C29.653 12.968 29.813 13.124 29.917 13.312V12.712H30.469V16.072C30.469 16.372 30.405 16.638 30.277 16.87C30.149 17.106 29.965 17.29 29.725 17.422C29.489 17.554 29.213 17.62 28.897 17.62C28.465 17.62 28.105 17.518 27.817 17.314C27.529 17.11 27.359 16.832 27.307 16.48H27.847C27.907 16.68 28.031 16.84 28.219 16.96C28.407 17.084 28.633 17.146 28.897 17.146C29.197 17.146 29.441 17.052 29.629 16.864C29.821 16.676 29.917 16.412 29.917 16.072V15.382C29.809 15.574 29.649 15.734 29.437 15.862C29.225 15.99 28.977 16.054 28.693 16.054C28.401 16.054 28.135 15.982 27.895 15.838C27.659 15.694 27.473 15.492 27.337 15.232C27.201 14.972 27.133 14.676 27.133 14.344C27.133 14.008 27.201 13.714 27.337 13.462C27.473 13.206 27.659 13.008 27.895 12.868C28.135 12.728 28.401 12.658 28.693 12.658ZM29.917 14.35C29.917 14.102 29.867 13.886 29.767 13.702C29.667 13.518 29.531 13.378 29.359 13.282C29.191 13.182 29.005 13.132 28.801 13.132C28.597 13.132 28.411 13.18 28.243 13.276C28.075 13.372 27.941 13.512 27.841 13.696C27.741 13.88 27.691 14.096 27.691 14.344C27.691 14.596 27.741 14.816 27.841 15.004C27.941 15.188 28.075 15.33 28.243 15.43C28.411 15.526 28.597 15.574 28.801 15.574C29.005 15.574 29.191 15.526 29.359 15.43C29.531 15.33 29.667 15.188 29.767 15.004C29.867 14.816 29.917 14.598 29.917 14.35ZM31.1877 14.344C31.1877 14.008 31.2557 13.714 31.3917 13.462C31.5277 13.206 31.7137 13.008 31.9497 12.868C32.1897 12.728 32.4557 12.658 32.7477 12.658C33.0357 12.658 33.2857 12.72 33.4977 12.844C33.7097 12.968 33.8677 13.124 33.9717 13.312V12.712H34.5237V16H33.9717V15.388C33.8637 15.58 33.7017 15.74 33.4857 15.868C33.2737 15.992 33.0257 16.054 32.7417 16.054C32.4497 16.054 32.1857 15.982 31.9497 15.838C31.7137 15.694 31.5277 15.492 31.3917 15.232C31.2557 14.972 31.1877 14.676 31.1877 14.344ZM33.9717 14.35C33.9717 14.102 33.9217 13.886 33.8217 13.702C33.7217 13.518 33.5857 13.378 33.4137 13.282C33.2457 13.182 33.0597 13.132 32.8557 13.132C32.6517 13.132 32.4657 13.18 32.2977 13.276C32.1297 13.372 31.9957 13.512 31.8957 13.696C31.7957 13.88 31.7457 14.096 31.7457 14.344C31.7457 14.596 31.7957 14.816 31.8957 15.004C31.9957 15.188 32.1297 15.33 32.2977 15.43C32.4657 15.526 32.6517 15.574 32.8557 15.574C33.0597 15.574 33.2457 15.526 33.4137 15.43C33.5857 15.33 33.7217 15.188 33.8217 15.004C33.9217 14.816 33.9717 14.598 33.9717 14.35ZM35.7284 12.178C35.6244 12.178 35.5364 12.142 35.4644 12.07C35.3924 11.998 35.3564 11.91 35.3564 11.806C35.3564 11.702 35.3924 11.614 35.4644 11.542C35.5364 11.47 35.6244 11.434 35.7284 11.434C35.8284 11.434 35.9124 11.47 35.9804 11.542C36.0524 11.614 36.0884 11.702 36.0884 11.806C36.0884 11.91 36.0524 11.998 35.9804 12.07C35.9124 12.142 35.8284 12.178 35.7284 12.178ZM35.9924 12.712V16H35.4464V12.712H35.9924ZM38.5249 12.652C38.9249 12.652 39.2489 12.774 39.4969 13.018C39.7449 13.258 39.8689 13.606 39.8689 14.062V16H39.3289V14.14C39.3289 13.812 39.2469 13.562 39.0829 13.39C38.9189 13.214 38.6949 13.126 38.4109 13.126C38.1229 13.126 37.8929 13.216 37.7209 13.396C37.5529 13.576 37.4689 13.838 37.4689 14.182V16H36.9229V12.712H37.4689V13.18C37.5769 13.012 37.7229 12.882 37.9069 12.79C38.0949 12.698 38.3009 12.652 38.5249 12.652ZM43.0684 11.818L43.0024 14.818H42.5464L42.4804 11.818H43.0684ZM42.7984 16.036C42.6944 16.036 42.6064 16 42.5344 15.928C42.4624 15.856 42.4264 15.768 42.4264 15.664C42.4264 15.56 42.4624 15.472 42.5344 15.4C42.6064 15.328 42.6944 15.292 42.7984 15.292C42.8984 15.292 42.9824 15.328 43.0504 15.4C43.1224 15.472 43.1584 15.56 43.1584 15.664C43.1584 15.768 43.1224 15.856 43.0504 15.928C42.9824 16 42.8984 16.036 42.7984 16.036Z" fill="#F9CADA"/>
<path d="M22.684 11.818H22.784V11.718H22.684V11.818ZM22.684 16V16.1H22.784V16H22.684ZM22.138 16H22.038V16.1H22.138V16ZM22.138 14.104H22.238V14.004H22.138V14.104ZM20.008 14.104V14.004H19.908V14.104H20.008ZM20.008 16V16.1H20.108V16H20.008ZM19.462 16H19.362V16.1H19.462V16ZM19.462 11.818V11.718H19.362V11.818H19.462ZM20.008 11.818H20.108V11.718H20.008V11.818ZM20.008 13.654H19.908V13.754H20.008V13.654ZM22.138 13.654V13.754H22.238V13.654H22.138ZM22.138 11.818V11.718H22.038V11.818H22.138ZM22.584 11.818V16H22.784V11.818H22.584ZM22.684 15.9H22.138V16.1H22.684V15.9ZM22.238 16V14.104H22.038V16H22.238ZM22.138 14.004H20.008V14.204H22.138V14.004ZM19.908 14.104V16H20.108V14.104H19.908ZM20.008 15.9H19.462V16.1H20.008V15.9ZM19.562 16V11.818H19.362V16H19.562ZM19.462 11.918H20.008V11.718H19.462V11.918ZM19.908 11.818V13.654H20.108V11.818H19.908ZM20.008 13.754H22.138V13.554H20.008V13.754ZM22.238 13.654V11.818H22.038V13.654H22.238ZM22.138 11.918H22.684V11.718H22.138V11.918ZM26.5983 14.56V14.66H26.6885L26.6978 14.5703L26.5983 14.56ZM23.9703 14.56V14.46H23.8639L23.8705 14.5662L23.9703 14.56ZM24.3003 15.322L24.2326 15.3956L24.2341 15.397L24.3003 15.322ZM25.6263 15.43L25.6832 15.5122L25.6836 15.5119L25.6263 15.43ZM25.9623 14.986V14.886H25.8912L25.8678 14.9531L25.9623 14.986ZM26.5503 14.986L26.6466 15.0128L26.682 14.886H26.5503V14.986ZM26.0223 15.76L26.0819 15.8403L26.0827 15.8397L26.0223 15.76ZM24.1983 15.844L24.1485 15.9307L24.1491 15.9311L24.1983 15.844ZM23.6223 15.25L23.5342 15.2974L23.5346 15.298L23.6223 15.25ZM23.6163 13.456L23.7046 13.5029L23.7046 13.5029L23.6163 13.456ZM24.1863 12.868L24.235 12.9553L24.2355 12.9551L24.1863 12.868ZM25.8663 12.862L25.817 12.949L25.817 12.949L25.8663 12.862ZM26.4183 13.426L26.33 13.4731L26.331 13.4748L26.4183 13.426ZM26.0523 14.116V14.216H26.1523V14.116H26.0523ZM25.9143 13.582L25.8287 13.6338L25.8294 13.6348L25.9143 13.582ZM25.5363 13.24L25.4906 13.329L25.4934 13.3303L25.5363 13.24ZM24.3063 13.384L24.2395 13.3096L24.2387 13.3103L24.3063 13.384ZM23.9763 14.116L23.8767 14.1071L23.8669 14.216H23.9763V14.116ZM26.5163 14.23C26.5163 14.3302 26.5105 14.4367 26.4988 14.5497L26.6978 14.5703C26.7101 14.4513 26.7163 14.3378 26.7163 14.23H26.5163ZM26.5983 14.46H23.9703V14.66H26.5983V14.46ZM23.8705 14.5662C23.8917 14.9106 24.01 15.1908 24.2326 15.3956L24.368 15.2484C24.1906 15.0852 24.0888 14.8574 24.0701 14.5538L23.8705 14.5662ZM24.2341 15.397C24.4575 15.5941 24.7275 15.692 25.0383 15.692V15.492C24.7731 15.492 24.5511 15.4099 24.3665 15.247L24.2341 15.397ZM25.0383 15.692C25.2896 15.692 25.5068 15.6343 25.6832 15.5122L25.5694 15.3478C25.4338 15.4417 25.259 15.492 25.0383 15.492V15.692ZM25.6836 15.5119C25.8608 15.3879 25.9858 15.2228 26.0567 15.0189L25.8678 14.9531C25.8108 15.1172 25.7118 15.2481 25.569 15.3481L25.6836 15.5119ZM25.9623 15.086H26.5503V14.886H25.9623V15.086ZM26.454 14.9592C26.3719 15.2539 26.2086 15.4934 25.9619 15.6803L26.0827 15.8397C26.3639 15.6266 26.5527 15.3501 26.6466 15.0128L26.454 14.9592ZM25.9627 15.6797C25.719 15.8606 25.4131 15.954 25.0383 15.954V16.154C25.4475 16.154 25.7975 16.0514 26.0819 15.8403L25.9627 15.6797ZM25.0383 15.954C24.7418 15.954 24.4791 15.8877 24.2475 15.7569L24.1491 15.9311C24.4135 16.0803 24.7108 16.154 25.0383 16.154V15.954ZM24.2481 15.7573C24.0207 15.6268 23.8415 15.4425 23.71 15.202L23.5346 15.298C23.6831 15.5695 23.8879 15.7812 24.1485 15.9307L24.2481 15.7573ZM23.7103 15.2026C23.5793 14.9592 23.5123 14.676 23.5123 14.35H23.3123C23.3123 14.704 23.3853 15.0208 23.5342 15.2974L23.7103 15.2026ZM23.5123 14.35C23.5123 14.0235 23.5775 13.7422 23.7046 13.5029L23.528 13.4091C23.3831 13.6818 23.3123 13.9965 23.3123 14.35H23.5123ZM23.7046 13.5029C23.8319 13.2633 24.0085 13.0816 24.235 12.9553L24.1376 12.7807C23.8761 12.9264 23.6727 13.1367 23.528 13.4091L23.7046 13.5029ZM24.2355 12.9551C24.4667 12.8246 24.7334 12.758 25.0383 12.758V12.558C24.7032 12.558 24.4019 12.6314 24.1371 12.7809L24.2355 12.9551ZM25.0383 12.758C25.3353 12.758 25.5939 12.8226 25.817 12.949L25.9156 12.775C25.6587 12.6294 25.3653 12.558 25.0383 12.558V12.758ZM25.817 12.949C26.0407 13.0758 26.2111 13.25 26.3301 13.4731L26.5065 13.3789C26.3695 13.122 26.1719 12.9202 25.9156 12.775L25.817 12.949ZM26.331 13.4748C26.4538 13.6943 26.5163 13.9452 26.5163 14.23H26.7163C26.7163 13.9148 26.6468 13.6297 26.5056 13.3772L26.331 13.4748ZM26.1523 14.116C26.1523 13.893 26.1028 13.6959 25.9992 13.5292L25.8294 13.6348C25.9098 13.7641 25.9523 13.923 25.9523 14.116H26.1523ZM25.9998 13.5302C25.8977 13.3615 25.7569 13.2341 25.5792 13.1497L25.4934 13.3303C25.6357 13.3979 25.7468 13.4985 25.8287 13.6338L25.9998 13.5302ZM25.5819 13.151C25.4105 13.0631 25.2206 13.02 25.0143 13.02V13.22C25.192 13.22 25.3501 13.2569 25.4907 13.329L25.5819 13.151ZM25.0143 13.02C24.7149 13.02 24.4548 13.1163 24.2395 13.3096L24.3731 13.4584C24.5498 13.2997 24.7617 13.22 25.0143 13.22V13.02ZM24.2387 13.3103C24.0248 13.5064 23.9064 13.7755 23.8767 14.1071L24.0759 14.1249C24.1021 13.8325 24.2038 13.6136 24.3739 13.4577L24.2387 13.3103ZM23.9763 14.216H26.0523V14.016H23.9763V14.216ZM29.437 12.844L29.3865 12.9303L29.3872 12.9307L29.437 12.844ZM29.917 13.312L29.8295 13.3604L30.017 13.312H29.917ZM29.917 12.712V12.612H29.817V12.712H29.917ZM30.469 12.712H30.569V12.612H30.469V12.712ZM30.277 16.87L30.1894 16.8217L30.1891 16.8223L30.277 16.87ZM29.725 17.422L29.6768 17.3344L29.6762 17.3347L29.725 17.422ZM27.817 17.314L27.7592 17.3956L27.7592 17.3956L27.817 17.314ZM27.307 16.48V16.38H27.1911L27.2081 16.4946L27.307 16.48ZM27.847 16.48L27.9428 16.4513L27.9214 16.38H27.847V16.48ZM28.219 16.96L28.2741 16.8765L28.2728 16.8757L28.219 16.96ZM29.629 16.864L29.559 16.7925L29.5583 16.7933L29.629 16.864ZM29.917 15.382H30.017V15.0002L29.8298 15.333L29.917 15.382ZM29.437 15.862L29.3853 15.7764L29.437 15.862ZM27.895 15.838L27.8429 15.9234L27.8436 15.9237L27.895 15.838ZM27.337 15.232L27.4256 15.1857L27.4256 15.1857L27.337 15.232ZM27.337 13.462L27.425 13.5095L27.4253 13.5089L27.337 13.462ZM27.895 12.868L27.8446 12.7816L27.844 12.782L27.895 12.868ZM29.359 13.282L29.3078 13.368L29.3103 13.3693L29.359 13.282ZM28.243 13.276L28.1934 13.1892L28.1934 13.1892L28.243 13.276ZM27.841 13.696L27.9289 13.7438L27.9289 13.7438L27.841 13.696ZM27.841 15.004L27.7527 15.051L27.7531 15.0518L27.841 15.004ZM28.243 15.43L28.1918 15.5159L28.1934 15.5168L28.243 15.43ZM29.359 15.43L29.4086 15.5168L29.4093 15.5165L29.359 15.43ZM29.767 15.004L29.8549 15.0518L29.8553 15.051L29.767 15.004ZM28.693 12.758C28.9621 12.758 29.1921 12.8166 29.3865 12.9303L29.4875 12.7577C29.2579 12.6234 28.9919 12.558 28.693 12.558V12.758ZM29.3872 12.9307C29.5899 13.0471 29.7357 13.1908 29.8295 13.3604L30.0045 13.2636C29.8903 13.0572 29.7161 12.8889 29.4868 12.7573L29.3872 12.9307ZM30.017 13.312V12.712H29.817V13.312H30.017ZM29.917 12.812H30.469V12.612H29.917V12.812ZM30.369 12.712V16.072H30.569V12.712H30.369ZM30.369 16.072C30.369 16.3574 30.3083 16.6064 30.1894 16.8217L30.3646 16.9183C30.5017 16.6696 30.569 16.3866 30.569 16.072H30.369ZM30.1891 16.8223C30.0704 17.0411 29.9004 17.2114 29.6768 17.3344L29.7732 17.5096C30.0296 17.3686 30.2276 17.1709 30.3649 16.9177L30.1891 16.8223ZM29.6762 17.3347C29.4574 17.4571 29.1988 17.52 28.897 17.52V17.72C29.2272 17.72 29.5206 17.6509 29.7738 17.5093L29.6762 17.3347ZM28.897 17.52C28.481 17.52 28.1424 17.422 27.8748 17.2324L27.7592 17.3956C28.0676 17.614 28.449 17.72 28.897 17.72V17.52ZM27.8748 17.2324C27.6093 17.0443 27.454 16.7906 27.4059 16.4654L27.2081 16.4946C27.264 16.8734 27.4487 17.1757 27.7592 17.3956L27.8748 17.2324ZM27.307 16.58H27.847V16.38H27.307V16.58ZM27.7512 16.5087C27.8186 16.7333 27.9585 16.9124 28.1652 17.0443L28.2728 16.8757C28.1035 16.7676 27.9954 16.6267 27.9428 16.4513L27.7512 16.5087ZM28.1639 17.0435C28.3709 17.18 28.6169 17.246 28.897 17.246V17.046C28.6491 17.046 28.4431 16.988 28.2741 16.8765L28.1639 17.0435ZM28.897 17.246C29.2198 17.246 29.4905 17.1439 29.6997 16.9347L29.5583 16.7933C29.3915 16.9601 29.1742 17.046 28.897 17.046V17.246ZM29.699 16.9355C29.915 16.724 30.017 16.4314 30.017 16.072H29.817C29.817 16.3926 29.727 16.628 29.559 16.7925L29.699 16.9355ZM30.017 16.072V15.382H29.817V16.072H30.017ZM29.8298 15.333C29.7313 15.5081 29.5844 15.6562 29.3853 15.7764L29.4887 15.9476C29.7136 15.8118 29.8867 15.6399 30.0042 15.431L29.8298 15.333ZM29.3853 15.7764C29.1911 15.8937 28.9615 15.954 28.693 15.954V16.154C28.9925 16.154 29.2589 16.0863 29.4887 15.9476L29.3853 15.7764ZM28.693 15.954C28.4183 15.954 28.1702 15.8865 27.9464 15.7523L27.8436 15.9237C28.0998 16.0775 28.3837 16.154 28.693 16.154V15.954ZM27.9471 15.7526C27.7275 15.6187 27.5537 15.4306 27.4256 15.1857L27.2484 15.2783C27.3923 15.5534 27.5905 15.7693 27.8429 15.9234L27.9471 15.7526ZM27.4256 15.1857C27.298 14.9417 27.233 14.662 27.233 14.344H27.033C27.033 14.69 27.104 15.0023 27.2484 15.2783L27.4256 15.1857ZM27.233 14.344C27.233 14.0217 27.2981 13.7446 27.425 13.5095L27.249 13.4145C27.1039 13.6834 27.033 13.9943 27.033 14.344H27.233ZM27.4253 13.5089C27.5532 13.2682 27.7267 13.0841 27.946 12.954L27.844 12.782C27.5913 12.9319 27.3928 13.1438 27.2487 13.4151L27.4253 13.5089ZM27.9454 12.9544C28.1693 12.8238 28.4178 12.758 28.693 12.758V12.558C28.3842 12.558 28.1007 12.6322 27.8446 12.7816L27.9454 12.9544ZM30.017 14.35C30.017 14.0884 29.9642 13.8554 29.8549 13.6542L29.6791 13.7498C29.7698 13.9166 29.817 14.1156 29.817 14.35H30.017ZM29.8549 13.6542C29.7464 13.4547 29.5973 13.3005 29.4077 13.1947L29.3103 13.3693C29.4647 13.4555 29.5876 13.5813 29.6791 13.7498L29.8549 13.6542ZM29.4101 13.1961C29.226 13.0865 29.0222 13.032 28.801 13.032V13.232C28.9878 13.232 29.156 13.2775 29.3079 13.3679L29.4101 13.1961ZM28.801 13.032C28.5806 13.032 28.3773 13.0841 28.1934 13.1892L28.2926 13.3628C28.4447 13.2759 28.6134 13.232 28.801 13.232V13.032ZM28.1934 13.1892C28.0079 13.2952 27.8613 13.4493 27.7531 13.6482L27.9289 13.7438C28.0207 13.5747 28.1421 13.4488 28.2926 13.3628L28.1934 13.1892ZM27.7531 13.6482C27.6438 13.8494 27.591 14.0824 27.591 14.344H27.791C27.791 14.1096 27.8382 13.9106 27.9289 13.7438L27.7531 13.6482ZM27.591 14.344C27.591 14.6094 27.6437 14.8461 27.7527 15.051L27.9293 14.957C27.8383 14.7859 27.791 14.5826 27.791 14.344H27.591ZM27.7531 15.0518C27.8611 15.2504 28.0073 15.4061 28.1919 15.5159L28.2941 15.3441C28.1427 15.2539 28.0209 15.1256 27.9289 14.9562L27.7531 15.0518ZM28.1934 15.5168C28.3773 15.6219 28.5806 15.674 28.801 15.674V15.474C28.6134 15.474 28.4447 15.4301 28.2926 15.3432L28.1934 15.5168ZM28.801 15.674C29.0214 15.674 29.2247 15.6219 29.4086 15.5168L29.3094 15.3432C29.1573 15.4301 28.9886 15.474 28.801 15.474V15.674ZM29.4093 15.5165C29.598 15.4067 29.7466 15.251 29.8549 15.0518L29.6791 14.9562C29.5874 15.125 29.464 15.2533 29.3087 15.3435L29.4093 15.5165ZM29.8553 15.051C29.9642 14.8463 30.017 14.6117 30.017 14.35H29.817C29.817 14.5843 29.7698 14.7857 29.6787 14.957L29.8553 15.051ZM31.3917 13.462L31.4797 13.5095L31.48 13.5089L31.3917 13.462ZM31.9497 12.868L31.8993 12.7816L31.8987 12.782L31.9497 12.868ZM33.4977 12.844L33.4472 12.9303L33.4472 12.9303L33.4977 12.844ZM33.9717 13.312L33.8842 13.3604L34.0717 13.312H33.9717ZM33.9717 12.712V12.612H33.8717V12.712H33.9717ZM34.5237 12.712H34.6237V12.612H34.5237V12.712ZM34.5237 16V16.1H34.6237V16H34.5237ZM33.9717 16H33.8717V16.1H33.9717V16ZM33.9717 15.388H34.0717V15.0062L33.8845 15.339L33.9717 15.388ZM33.4857 15.868L33.5362 15.9543L33.5367 15.954L33.4857 15.868ZM31.9497 15.838L31.8976 15.9234L31.8976 15.9234L31.9497 15.838ZM31.3917 15.232L31.4803 15.1857L31.4803 15.1857L31.3917 15.232ZM33.4137 13.282L33.3625 13.368L33.365 13.3693L33.4137 13.282ZM32.2977 13.276L32.2481 13.1892L32.2481 13.1892L32.2977 13.276ZM31.8957 13.696L31.9836 13.7438L31.9836 13.7438L31.8957 13.696ZM31.8957 15.004L31.8074 15.051L31.8078 15.0518L31.8957 15.004ZM32.2977 15.43L32.2465 15.5159L32.2481 15.5168L32.2977 15.43ZM33.4137 15.43L33.4633 15.5168L33.4639 15.5165L33.4137 15.43ZM33.8217 15.004L33.9096 15.0518L33.91 15.051L33.8217 15.004ZM31.2877 14.344C31.2877 14.0217 31.3528 13.7446 31.4797 13.5095L31.3037 13.4145C31.1585 13.6834 31.0877 13.9943 31.0877 14.344H31.2877ZM31.48 13.5089C31.6079 13.2682 31.7814 13.0841 32.0007 12.954L31.8987 12.782C31.646 12.9319 31.4475 13.1438 31.3034 13.4151L31.48 13.5089ZM32.0001 12.9544C32.224 12.8238 32.4725 12.758 32.7477 12.758V12.558C32.4389 12.558 32.1554 12.6322 31.8993 12.7816L32.0001 12.9544ZM32.7477 12.758C33.021 12.758 33.253 12.8167 33.4472 12.9303L33.5482 12.7577C33.3184 12.6233 33.0503 12.558 32.7477 12.558V12.758ZM33.4472 12.9303C33.6459 13.0466 33.7901 13.1903 33.8842 13.3604L34.0592 13.2636C33.9453 13.0577 33.7734 12.8894 33.5482 12.7577L33.4472 12.9303ZM34.0717 13.312V12.712H33.8717V13.312H34.0717ZM33.9717 12.812H34.5237V12.612H33.9717V12.812ZM34.4237 12.712V16H34.6237V12.712H34.4237ZM34.5237 15.9H33.9717V16.1H34.5237V15.9ZM34.0717 16V15.388H33.8717V16H34.0717ZM33.8845 15.339C33.7863 15.5136 33.6378 15.6616 33.4347 15.782L33.5367 15.954C33.7656 15.8184 33.9411 15.6464 34.0588 15.437L33.8845 15.339ZM33.4352 15.7817C33.2408 15.8954 33.0108 15.954 32.7417 15.954V16.154C33.0406 16.154 33.3066 16.0886 33.5362 15.9543L33.4352 15.7817ZM32.7417 15.954C32.467 15.954 32.2212 15.8865 32.0018 15.7526L31.8976 15.9234C32.1502 16.0775 32.4324 16.154 32.7417 16.154V15.954ZM32.0018 15.7526C31.7822 15.6187 31.6084 15.4306 31.4803 15.1857L31.3031 15.2783C31.447 15.5534 31.6452 15.7693 31.8976 15.9234L32.0018 15.7526ZM31.4803 15.1857C31.3527 14.9417 31.2877 14.662 31.2877 14.344H31.0877C31.0877 14.69 31.1587 15.0023 31.3031 15.2783L31.4803 15.1857ZM34.0717 14.35C34.0717 14.0884 34.0189 13.8554 33.9096 13.6542L33.7338 13.7498C33.8245 13.9166 33.8717 14.1156 33.8717 14.35H34.0717ZM33.9096 13.6542C33.8011 13.4547 33.652 13.3005 33.4624 13.1947L33.365 13.3693C33.5194 13.4555 33.6423 13.5813 33.7338 13.7498L33.9096 13.6542ZM33.4648 13.1961C33.2807 13.0865 33.0769 13.032 32.8557 13.032V13.232C33.0425 13.232 33.2107 13.2775 33.3625 13.3679L33.4648 13.1961ZM32.8557 13.032C32.6353 13.032 32.432 13.0841 32.2481 13.1892L32.3473 13.3628C32.4994 13.2759 32.6681 13.232 32.8557 13.232V13.032ZM32.2481 13.1892C32.0626 13.2952 31.9159 13.4493 31.8078 13.6482L31.9836 13.7438C32.0754 13.5747 32.1968 13.4488 32.3473 13.3628L32.2481 13.1892ZM31.8078 13.6482C31.6985 13.8494 31.6457 14.0824 31.6457 14.344H31.8457C31.8457 14.1096 31.8929 13.9106 31.9836 13.7438L31.8078 13.6482ZM31.6457 14.344C31.6457 14.6094 31.6984 14.8461 31.8074 15.051L31.984 14.957C31.893 14.7859 31.8457 14.5826 31.8457 14.344H31.6457ZM31.8078 15.0518C31.9158 15.2504 32.062 15.4061 32.2465 15.5159L32.3488 15.3441C32.1974 15.2539 32.0756 15.1256 31.9836 14.9562L31.8078 15.0518ZM32.2481 15.5168C32.432 15.6219 32.6353 15.674 32.8557 15.674V15.474C32.6681 15.474 32.4994 15.4301 32.3473 15.3432L32.2481 15.5168ZM32.8557 15.674C33.0761 15.674 33.2794 15.6219 33.4633 15.5168L33.3641 15.3432C33.212 15.4301 33.0433 15.474 32.8557 15.474V15.674ZM33.4639 15.5165C33.6526 15.4067 33.8013 15.251 33.9096 15.0518L33.7338 14.9562C33.6421 15.125 33.5187 15.2533 33.3634 15.3435L33.4639 15.5165ZM33.91 15.051C34.0188 14.8463 34.0717 14.6117 34.0717 14.35H33.8717C33.8717 14.5843 33.8245 14.7857 33.7334 14.957L33.91 15.051ZM35.4644 12.07L35.5351 11.9993L35.5351 11.9993L35.4644 12.07ZM35.4644 11.542L35.5351 11.6127L35.5351 11.6127L35.4644 11.542ZM35.9804 11.542L35.9076 11.6107L35.9097 11.6127L35.9804 11.542ZM35.9804 12.07L35.9096 11.9993L35.9077 12.0013L35.9804 12.07ZM35.9924 12.712H36.0924V12.612H35.9924V12.712ZM35.9924 16V16.1H36.0924V16H35.9924ZM35.4464 16H35.3464V16.1H35.4464V16ZM35.4464 12.712V12.612H35.3464V12.712H35.4464ZM35.7284 12.078C35.6503 12.078 35.5879 12.0521 35.5351 11.9993L35.3937 12.1407C35.4849 12.2319 35.5985 12.278 35.7284 12.278V12.078ZM35.5351 11.9993C35.4823 11.9465 35.4564 11.8841 35.4564 11.806H35.2564C35.2564 11.9359 35.3025 12.0495 35.3937 12.1407L35.5351 11.9993ZM35.4564 11.806C35.4564 11.7279 35.4823 11.6655 35.5351 11.6127L35.3937 11.4713C35.3025 11.5625 35.2564 11.6761 35.2564 11.806H35.4564ZM35.5351 11.6127C35.5879 11.5599 35.6503 11.534 35.7284 11.534V11.334C35.5985 11.334 35.4849 11.3801 35.3937 11.4713L35.5351 11.6127ZM35.7284 11.534C35.8012 11.534 35.8588 11.5589 35.9077 11.6107L36.0531 11.4733C35.966 11.3811 35.8556 11.334 35.7284 11.334V11.534ZM35.9097 11.6127C35.9625 11.6655 35.9884 11.7279 35.9884 11.806H36.1884C36.1884 11.6761 36.1423 11.5625 36.0511 11.4713L35.9097 11.6127ZM35.9884 11.806C35.9884 11.8841 35.9625 11.9465 35.9097 11.9993L36.0511 12.1407C36.1423 12.0495 36.1884 11.9359 36.1884 11.806H35.9884ZM35.9077 12.0013C35.8588 12.0531 35.8012 12.078 35.7284 12.078V12.278C35.8556 12.278 35.966 12.2309 36.0531 12.1387L35.9077 12.0013ZM35.8924 12.712V16H36.0924V12.712H35.8924ZM35.9924 15.9H35.4464V16.1H35.9924V15.9ZM35.5464 16V12.712H35.3464V16H35.5464ZM35.4464 12.812H35.9924V12.612H35.4464V12.812ZM39.4969 13.018L39.4268 13.0893L39.4274 13.0899L39.4969 13.018ZM39.8689 16V16.1H39.9689V16H39.8689ZM39.3289 16H39.2289V16.1H39.3289V16ZM39.0829 13.39L39.0098 13.4582L39.0106 13.459L39.0829 13.39ZM37.7209 13.396L37.6486 13.3269L37.6478 13.3278L37.7209 13.396ZM37.4689 16V16.1H37.5689V16H37.4689ZM36.9229 16H36.8229V16.1H36.9229V16ZM36.9229 12.712V12.612H36.8229V12.712H36.9229ZM37.4689 12.712H37.5689V12.612H37.4689V12.712ZM37.4689 13.18H37.3689V13.5205L37.5531 13.2341L37.4689 13.18ZM37.9069 12.79L37.863 12.7002L37.8622 12.7006L37.9069 12.79ZM38.5249 12.752C38.9029 12.752 39.2003 12.8665 39.4268 13.0893L39.5671 12.9467C39.2975 12.6815 38.9469 12.552 38.5249 12.552V12.752ZM39.4274 13.0899C39.6503 13.3055 39.7689 13.624 39.7689 14.062H39.9689C39.9689 13.588 39.8396 13.2105 39.5665 12.9461L39.4274 13.0899ZM39.7689 14.062V16H39.9689V14.062H39.7689ZM39.8689 15.9H39.3289V16.1H39.8689V15.9ZM39.4289 16V14.14H39.2289V16H39.4289ZM39.4289 14.14C39.4289 13.7962 39.3429 13.5177 39.1553 13.321L39.0106 13.459C39.151 13.6063 39.2289 13.8278 39.2289 14.14H39.4289ZM39.1561 13.3218C38.9698 13.1219 38.7172 13.026 38.4109 13.026V13.226C38.6726 13.226 38.8681 13.3061 39.0098 13.4582L39.1561 13.3218ZM38.4109 13.026C38.1003 13.026 37.8425 13.124 37.6486 13.3269L37.7932 13.4651C37.9434 13.308 38.1456 13.226 38.4109 13.226V13.026ZM37.6478 13.3278C37.4567 13.5325 37.3689 13.8228 37.3689 14.182H37.5689C37.5689 13.8532 37.6492 13.6195 37.794 13.4642L37.6478 13.3278ZM37.3689 14.182V16H37.5689V14.182H37.3689ZM37.4689 15.9H36.9229V16.1H37.4689V15.9ZM37.0229 16V12.712H36.8229V16H37.0229ZM36.9229 12.812H37.4689V12.612H36.9229V12.812ZM37.3689 12.712V13.18H37.5689V12.712H37.3689ZM37.5531 13.2341C37.651 13.0817 37.7832 12.9637 37.9517 12.8794L37.8622 12.7006C37.6627 12.8003 37.5028 12.9423 37.3848 13.1259L37.5531 13.2341ZM37.9509 12.8798C38.1243 12.795 38.3151 12.752 38.5249 12.752V12.552C38.2868 12.552 38.0656 12.601 37.863 12.7002L37.9509 12.8798ZM43.0684 11.818L43.1684 11.8202L43.1707 11.718H43.0684V11.818ZM43.0024 14.818V14.918H43.1003L43.1024 14.8202L43.0024 14.818ZM42.5464 14.818L42.4465 14.8202L42.4486 14.918H42.5464V14.818ZM42.4804 11.818V11.718H42.3782L42.3805 11.8202L42.4804 11.818ZM42.5344 15.928L42.4637 15.9987L42.4637 15.9987L42.5344 15.928ZM42.5344 15.4L42.6051 15.4707L42.6051 15.4707L42.5344 15.4ZM43.0504 15.4L42.9777 15.4687L42.9797 15.4707L43.0504 15.4ZM43.0504 15.928L42.9797 15.8573L42.9777 15.8593L43.0504 15.928ZM42.9685 11.8158L42.9025 14.8158L43.1024 14.8202L43.1684 11.8202L42.9685 11.8158ZM43.0024 14.718H42.5464V14.918H43.0024V14.718ZM42.6464 14.8158L42.5804 11.8158L42.3805 11.8202L42.4465 14.8202L42.6464 14.8158ZM42.4804 11.918H43.0684V11.718H42.4804V11.918ZM42.7984 15.936C42.7203 15.936 42.6579 15.9101 42.6051 15.8573L42.4637 15.9987C42.5549 16.0899 42.6686 16.136 42.7984 16.136V15.936ZM42.6051 15.8573C42.5523 15.8045 42.5264 15.7421 42.5264 15.664H42.3264C42.3264 15.7939 42.3725 15.9075 42.4637 15.9987L42.6051 15.8573ZM42.5264 15.664C42.5264 15.5859 42.5523 15.5235 42.6051 15.4707L42.4637 15.3293C42.3725 15.4205 42.3264 15.5341 42.3264 15.664H42.5264ZM42.6051 15.4707C42.6579 15.4179 42.7203 15.392 42.7984 15.392V15.192C42.6686 15.192 42.5549 15.2381 42.4637 15.3293L42.6051 15.4707ZM42.7984 15.392C42.8712 15.392 42.9288 15.4169 42.9777 15.4687L43.1231 15.3313C43.036 15.2391 42.9256 15.192 42.7984 15.192V15.392ZM42.9797 15.4707C43.0325 15.5235 43.0584 15.5859 43.0584 15.664H43.2584C43.2584 15.5341 43.2123 15.4205 43.1211 15.3293L42.9797 15.4707ZM43.0584 15.664C43.0584 15.7421 43.0325 15.8045 42.9797 15.8573L43.1211 15.9987C43.2123 15.9075 43.2584 15.7939 43.2584 15.664H43.0584ZM42.9777 15.8593C42.9288 15.9111 42.8712 15.936 42.7984 15.936V16.136C42.9256 16.136 43.036 16.0889 43.1231 15.9967L42.9777 15.8593Z" fill="black"/>
<mask id="mask0_234_2880" style="mask-type:alpha" maskUnits="userSpaceOnUse" x="0" y="0" width="26" height="24">
<path d="M24.5571 12C24.5571 18.3312 19.1923 23.5 12.5285 23.5C5.86483 23.5 0.5 18.3312 0.5 12C0.5 5.66882 5.86483 0.5 12.5285 0.5C19.1923 0.5 24.5571 5.66882 24.5571 12Z" fill="#D9D9D9" stroke="black"/>
</mask>
<g mask="url(#mask0_234_2880)">
<g clip-path="url(#clip0_234_2880)">
<path d="M7.12365 13.073L7.24945 16.0589C7.24945 16.0589 7.35776 16.6021 7.26445 16.8721C7.17114 17.142 4.40595 17.4703 4.40595 17.4703L3.63947 16.8138L3.97772 16.0564L4.76337 10.0445C4.55342 10.3553 4.18018 10.5586 3.76361 10.5586C3.11209 10.5586 2.58472 10.0553 2.58472 9.43382C2.58472 8.81313 3.11293 8.30908 3.76361 8.30908C4.17101 8.30908 4.52926 8.5057 4.74171 8.8048" fill="#FCF1BF"/>
<path d="M4.40513 17.5119C4.39514 17.5119 4.38597 17.5085 4.37764 17.5019L3.61115 16.8454C3.59699 16.8337 3.59282 16.8137 3.60032 16.797L3.93608 16.0456L4.70173 10.1911C4.47178 10.4477 4.12437 10.6018 3.76278 10.6018C3.08961 10.6018 2.54224 10.0786 2.54224 9.43544C2.54224 8.79225 3.08961 8.26904 3.76278 8.26904C4.16852 8.26904 4.54677 8.46066 4.77421 8.78226C4.78754 8.80142 4.78338 8.82725 4.76422 8.84058C4.74589 8.85391 4.71923 8.84974 4.7059 8.83058C4.49428 8.53148 4.14103 8.35236 3.76195 8.35236C3.1346 8.35236 2.62472 8.83808 2.62472 9.43544C2.62472 10.0328 3.1346 10.5185 3.76195 10.5185C4.15019 10.5185 4.52011 10.3286 4.72672 10.0228C4.73756 10.007 4.75838 10.0003 4.77588 10.007C4.79421 10.0136 4.80504 10.032 4.80254 10.0511L4.01689 16.063C4.01606 16.0672 4.01522 16.0705 4.01356 16.0747L3.6878 16.8037L4.4168 17.4286C5.75815 17.2686 7.17032 17.0128 7.22281 16.8604C7.31112 16.6046 7.20698 16.0747 7.20614 16.0689L7.07951 13.0762C7.07867 13.0529 7.09617 13.0338 7.1195 13.0329C7.14449 13.0313 7.16199 13.0496 7.16282 13.0729L7.28862 16.0589C7.29196 16.0747 7.39693 16.6096 7.30112 16.887C7.20448 17.1678 4.87419 17.4577 4.40763 17.5135C4.40847 17.5119 4.4068 17.5119 4.40513 17.5119Z" fill="black"/>
<path d="M5.49487 11.4532C5.49654 11.584 5.5032 12.0473 5.70899 12.538C5.90811 13.0129 6.19554 13.4328 6.61794 13.7177C6.90037 13.9085 7.1953 13.956 7.1953 13.956L7.10533 13.0795C7.10533 13.0795 6.54213 12.9212 6.27719 12.6596C6.01558 12.4014 5.90811 12.3022 5.49487 11.4532Z" fill="black"/>
<path d="M3.96347 16.0805C3.9618 16.0805 3.96014 16.0805 3.95764 16.0805C3.93514 16.0772 3.91848 16.0564 3.92181 16.0339L4.72412 10.0403C4.72745 10.0178 4.74828 10.0011 4.77078 10.0045C4.79327 10.0078 4.80993 10.0286 4.8066 10.0511L4.00429 16.0447C4.00179 16.0655 3.98346 16.0805 3.96347 16.0805Z" fill="black"/>
<path d="M4.74341 8.80717C5.00668 6.99926 6.31054 5.45129 7.86101 5.45129C9.60227 5.45129 11.0136 7.18089 11.0136 9.31539C11.0136 11.4499 9.60227 13.1795 7.86101 13.1795C7.63106 13.1795 7.40778 13.1495 7.192 13.092C7.16951 13.0862 7.14618 13.0795 7.12368 13.0728C7.10452 13.067 7.08536 13.0612 7.06703 13.0553C5.8998 12.6829 4.99502 11.5107 4.7659 10.046" fill="#FCF1BF"/>
<path d="M7.86102 13.2203C7.6319 13.2203 7.40279 13.1903 7.18118 13.1311C7.15785 13.1253 7.13535 13.1186 7.11203 13.112C7.09286 13.1062 7.0737 13.1003 7.05454 13.0945C5.86982 12.7171 4.95503 11.5224 4.72509 10.0519C4.72175 10.0294 4.73675 10.0077 4.76008 10.0044C4.78257 10.001 4.80424 10.016 4.80757 10.0394C5.03335 11.479 5.92564 12.6479 7.08037 13.0153C7.0987 13.0212 7.11786 13.027 7.13619 13.0328C7.15868 13.0395 7.18118 13.0453 7.20284 13.0512C7.41779 13.1087 7.6394 13.137 7.86102 13.137C9.57645 13.137 10.972 11.4224 10.972 9.31454C10.972 7.2067 9.57645 5.49211 7.86102 5.49211C6.40719 5.49211 5.05668 6.9501 4.78507 8.81216C4.78174 8.83466 4.76008 8.85132 4.73758 8.84715C4.71509 8.84382 4.69926 8.82299 4.70259 8.79966C4.98003 6.89761 6.3672 5.40796 7.86102 5.40796C9.62227 5.40796 11.0553 7.16005 11.0553 9.31371C11.0553 11.4674 9.62227 13.2203 7.86102 13.2203Z" fill="black"/>
<path d="M6.65712 8.60142C6.64379 8.60142 6.63046 8.59475 6.62296 8.58309C6.60963 8.56393 6.61463 8.5381 6.63379 8.5256C6.64629 8.51644 6.95205 8.30982 7.28614 8.25983C7.61607 8.21068 7.96015 8.23817 7.97431 8.239C7.99764 8.24067 8.01431 8.26066 8.01264 8.28399C8.01097 8.30732 7.98931 8.32398 7.96765 8.32232C7.96432 8.32232 7.61773 8.29482 7.29864 8.34231C6.98371 8.3898 6.68462 8.59225 6.68128 8.59392C6.67295 8.59892 6.66462 8.60142 6.65712 8.60142Z" fill="black"/>
<path d="M9.56458 10.4876H8.7731C8.74977 10.4876 8.73145 10.4693 8.73145 10.446C8.73145 10.4227 8.74977 10.4043 8.7731 10.4043H9.5021C9.39796 10.156 9.00971 9.20211 9.01638 8.76304C9.02388 8.25816 9.22216 8.07654 9.2305 8.06904C9.30048 7.99405 9.52959 7.83493 9.87868 7.79493C10.2111 7.75661 10.5677 7.82326 10.5827 7.82576C10.6052 7.82993 10.6202 7.85159 10.616 7.87408C10.6118 7.89658 10.5902 7.91157 10.5677 7.90741C10.5643 7.90658 10.2086 7.84076 9.88951 7.87742C9.58874 7.91241 9.3663 8.04654 9.28965 8.12819C9.28548 8.13236 9.10719 8.29982 9.10053 8.76387C9.09386 9.2421 9.59958 10.4168 9.60457 10.4285C9.61041 10.441 9.60874 10.456 9.60124 10.4676C9.59374 10.4793 9.57875 10.4876 9.56458 10.4876Z" fill="black"/>
<path d="M7.77855 9.19796C7.94465 9.19796 8.07931 9.06331 8.07931 8.8972C8.07931 8.73109 7.94465 8.59644 7.77855 8.59644C7.61244 8.59644 7.47778 8.73109 7.47778 8.8972C7.47778 9.06331 7.61244 9.19796 7.77855 9.19796Z" fill="black"/>
<path d="M10.0188 9.01803C10.1849 9.01803 10.3195 8.88337 10.3195 8.71727C10.3195 8.55116 10.1849 8.4165 10.0188 8.4165C9.85267 8.4165 9.71802 8.55116 9.71802 8.71727C9.71802 8.88337 9.85267 9.01803 10.0188 9.01803Z" fill="black"/>
<path d="M7.80679 12.0348C7.76763 12.0348 7.72681 12.0315 7.68598 12.0248C7.54685 12.0006 7.42188 11.939 7.33523 11.8498C7.24525 11.7574 7.20526 11.6466 7.22359 11.5382C7.22776 11.5157 7.24859 11.4999 7.27191 11.5041C7.29441 11.5083 7.3094 11.5299 7.30607 11.5524C7.29191 11.6332 7.32357 11.7182 7.39522 11.7915C7.4702 11.8682 7.57851 11.9215 7.70015 11.9423C7.94759 11.9848 8.17253 11.879 8.20169 11.7057C8.20586 11.6832 8.22669 11.6682 8.25002 11.6715C8.27251 11.6757 8.28751 11.6974 8.28417 11.7199C8.25168 11.9082 8.0484 12.0348 7.80679 12.0348Z" fill="black"/>
<path d="M16.9271 28.4076C16.863 28.9075 16.4339 29.0466 15.899 29.1333C15.355 29.2208 12.0741 29.5557 11.7292 29.5907L11.7367 29.6282L13.0289 35.9742L-3.56639 35.97L-2.14422 29.0591C-3.17898 28.8625 -5.30681 28.4543 -5.72422 28.3501C-6.24909 28.2193 -6.66566 28.0435 -6.68732 27.5403C-6.70898 27.0371 -4.73861 22.4615 -3.51307 20.447C-2.28669 18.4333 -0.842028 17.2727 0.559309 16.4629C1.90483 15.6848 3.82438 16.0272 3.97684 16.0555C3.97684 16.0555 4.41257 16.9187 5.53231 16.9153C6.60872 16.9112 7.22441 16.133 7.27024 16.073L7.27357 16.0689C7.27357 16.0689 9.32059 15.8281 10.6478 16.7545C11.975 17.681 13.3163 18.9598 14.3669 21.0702C15.4175 23.1814 16.9921 27.9077 16.9271 28.4076Z" fill="#AFD9EC"/>
<path d="M13.0298 36.0158L-3.56548 36.0117C-3.57798 36.0117 -3.58964 36.0058 -3.59797 35.9967C-3.60547 35.9867 -3.6088 35.9742 -3.6063 35.9617L-2.19247 29.0924C-2.96562 28.9458 -5.29258 28.5009 -5.73331 28.3909C-6.20153 28.2743 -6.70391 28.1027 -6.72807 27.5428C-6.7514 26.9963 -4.72687 22.364 -3.54798 20.4261C-2.49823 18.7032 -1.2002 17.4327 0.53939 16.4279C1.87824 15.6531 3.77363 15.9764 3.98525 16.0155C3.99774 16.018 4.00858 16.0263 4.01441 16.038C4.01857 16.0463 4.4518 16.8753 5.52655 16.8753C5.52905 16.8753 5.53072 16.8753 5.53239 16.8753C6.59714 16.8711 7.21199 16.083 7.23698 16.0497C7.24365 16.0405 7.25781 16.0305 7.26864 16.0297C7.28947 16.0272 9.34649 15.7981 10.6712 16.7228C12.3191 17.8734 13.5055 19.2498 14.4036 21.0543C15.4142 23.0855 17.038 27.8727 16.968 28.4159C16.8964 28.9708 16.3823 29.0999 15.905 29.1774C15.3651 29.2641 12.1975 29.5882 11.7784 29.6307L13.0689 35.9692C13.0714 35.9817 13.0681 35.9942 13.0606 36.0042C13.054 36.0108 13.0423 36.0158 13.0298 36.0158ZM-3.51466 35.9283L12.9781 35.9325L11.6884 29.599C11.6859 29.5873 11.6884 29.5757 11.6959 29.5657C11.7026 29.5565 11.7134 29.5498 11.7251 29.549C11.7609 29.5457 15.3284 29.1824 15.8925 29.0916C16.4632 28.9991 16.8281 28.8517 16.8856 28.4018C16.9464 27.9369 15.3859 23.2122 14.3295 21.0885C13.4372 19.2972 12.26 17.9309 10.6237 16.7887C9.38898 15.9264 7.49526 16.088 7.29531 16.108C7.18783 16.2438 6.57714 16.9528 5.53239 16.957C5.52989 16.957 5.52822 16.957 5.52572 16.957C4.49096 16.957 4.02274 16.2205 3.94942 16.093C3.66449 16.0422 1.85908 15.7589 0.57938 16.4987C-1.14688 17.4968 -2.43658 18.7582 -3.478 20.4686C-4.71104 22.4948 -6.66642 27.0696 -6.64642 27.5386C-6.62726 27.9927 -6.27568 28.1702 -5.71498 28.3101C-5.26841 28.4218 -2.86398 28.8808 -2.13748 29.0183C-2.12665 29.02 -2.11665 29.0266 -2.11082 29.0358C-2.10416 29.045 -2.10249 29.0566 -2.10416 29.0675L-3.51466 35.9283Z" fill="black"/>
<path d="M11.7374 29.6699C11.7183 29.6699 11.7008 29.6565 11.6966 29.6365L10.5144 23.8779C10.5102 23.8554 10.5244 23.8337 10.5469 23.8287C10.5694 23.8246 10.591 23.8387 10.596 23.8612L11.7783 29.6199C11.7824 29.6424 11.7683 29.664 11.7458 29.669C11.7424 29.6699 11.7399 29.6699 11.7374 29.6699Z" fill="black"/>
<path d="M10.4587 7.21761C10.7353 7.50171 11.2952 7.88329 11.2577 7.15346C11.2452 6.91018 10.882 6.21951 10.5612 6.04622C10.2263 5.86543 8.70415 5.55383 8.23676 5.55383C7.76937 5.55383 5.44908 5.78211 4.58761 5.75462C3.72615 5.72713 2.7922 6.86686 2.54393 7.79164C2.29565 8.71643 3.00215 8.89972 3.12796 8.90388C3.74948 8.92721 4.08856 8.00576 4.29185 8.6981C4.45681 9.2588 4.96169 9.07634 5.35743 8.70143C5.66819 8.40733 6.10642 7.58169 6.46134 7.5342C6.82042 7.48588 7.14201 7.92494 7.81852 7.93911C7.81852 7.93911 8.27841 7.99909 8.62333 7.76915C8.96825 7.5392 9.11655 7.31759 9.37316 7.08514C9.83055 6.6719 10.2213 6.9735 10.4587 7.21761Z" fill="black"/>
<path d="M4.68506 9.09551C4.6459 9.09551 4.60841 9.09051 4.57259 9.08135C4.42012 9.04052 4.31265 8.91555 4.25266 8.7106C4.21351 8.57813 4.16852 8.50232 4.11686 8.48649C4.04604 8.46399 3.94024 8.54647 3.81776 8.64145C3.63697 8.78225 3.41119 8.95638 3.12709 8.94638C3.02462 8.94221 2.76135 8.8639 2.59888 8.64312C2.44059 8.429 2.40893 8.13907 2.50474 7.78165C2.76718 6.80355 3.73945 5.68714 4.58925 5.71297C5.11913 5.72963 6.20221 5.64965 7.072 5.58467C7.60021 5.54551 8.05677 5.51135 8.23673 5.51135C8.70245 5.51135 10.2288 5.81878 10.5803 6.00874C10.9103 6.18703 11.2852 6.8802 11.2993 7.15097C11.3118 7.39591 11.2585 7.54588 11.141 7.5967C10.9486 7.68001 10.637 7.46006 10.4287 7.24595C10.1929 7.00434 9.83052 6.72773 9.40146 7.11681C9.31481 7.19512 9.23899 7.27427 9.16568 7.35009C9.02404 7.49755 8.87741 7.65085 8.64663 7.80415C8.29255 8.03993 7.83266 7.98327 7.8135 7.98077C7.44025 7.97328 7.16698 7.83414 6.94787 7.7225C6.76374 7.62919 6.61794 7.55504 6.46714 7.57504C6.25386 7.60336 5.98976 7.96161 5.75648 8.27654C5.62401 8.45566 5.4982 8.62562 5.38656 8.73143C5.13746 8.96804 4.88835 9.09551 4.68506 9.09551ZM4.0902 8.39818C4.1077 8.39818 4.12519 8.40067 4.14186 8.40651C4.22267 8.43233 4.28349 8.52148 4.33181 8.68644C4.38347 8.86223 4.47178 8.96804 4.59425 9.00053C4.78254 9.05136 5.05747 8.92805 5.32908 8.67144C5.43572 8.57064 5.55902 8.40401 5.68899 8.22738C5.94393 7.88246 6.20804 7.52588 6.45548 7.49255C6.63211 7.46923 6.7954 7.55171 6.98452 7.64835C7.2078 7.76166 7.46024 7.88996 7.81849 7.89746C7.82766 7.89829 8.27172 7.95328 8.59914 7.735C8.82243 7.5867 8.95906 7.4434 9.10403 7.2926C9.17818 7.21512 9.25482 7.13514 9.34397 7.05516C9.88301 6.56694 10.3379 7.03433 10.487 7.18846C10.6853 7.39258 10.9636 7.58337 11.1061 7.52088C11.2085 7.47589 11.2219 7.2976 11.2144 7.15513C11.2027 6.93269 10.8503 6.25035 10.5395 6.08205C10.2038 5.90043 8.68163 5.59467 8.23506 5.59467C8.05844 5.59467 7.60354 5.62799 7.07617 5.66715C6.20387 5.73213 5.11913 5.81212 4.58425 5.79545C4.57509 5.79545 4.56509 5.79462 4.55593 5.79462C3.74528 5.79462 2.83383 6.86354 2.58222 7.80165C2.49307 8.13324 2.52057 8.39901 2.66304 8.5923C2.8205 8.80558 3.07377 8.85973 3.12793 8.8614C3.38453 8.87056 3.59448 8.70644 3.76444 8.57397C3.89108 8.47816 3.99356 8.39818 4.0902 8.39818Z" fill="black"/>
<path d="M2.28383 6.81266C2.38047 4.57652 3.28443 3.62591 3.28443 3.62591L10.0953 2.89941C10.0953 2.89941 10.4119 3.16852 11.0301 4.86729L10.9218 4.57569C12.7097 4.47821 13.9028 4.59652 13.9711 4.94893C14.0869 5.54879 10.906 6.59022 6.86608 7.27422C2.8262 7.95823 -0.542176 8.02655 -0.657149 7.42585C-0.728799 7.05427 0.485915 6.50773 2.36131 5.98786" fill="#F4A37F"/>
<path d="M1.2799 7.87661C0.130167 7.87661 -0.638819 7.74414 -0.697972 7.43421C-0.802947 6.89017 1.35988 6.22366 2.32548 5.95539C2.57293 4.33244 3.24694 3.60511 3.25527 3.59678C3.26193 3.58928 3.2711 3.58512 3.28109 3.58428L10.0912 2.85779C10.102 2.85612 10.1137 2.86029 10.1228 2.86778C10.1353 2.87862 10.4136 3.12689 10.9501 4.53239C12.0674 4.47241 13.9169 4.44991 14.0119 4.94146C14.0244 5.00728 14.0061 5.07643 13.9561 5.14808C13.5154 5.78377 10.5369 6.69522 6.87358 7.31591C4.84406 7.65916 2.75039 7.87661 1.2799 7.87661ZM2.31132 6.04621C0.0768461 6.67106 -0.663813 7.17594 -0.617158 7.41922C-0.519681 7.92493 2.50711 7.97075 6.85859 7.23426C10.4427 6.6269 13.4645 5.71045 13.8869 5.10143C13.9236 5.04894 13.9378 5.00062 13.9294 4.95729C13.8836 4.71818 13.083 4.50407 10.981 4.61404C11.0093 4.69069 11.0393 4.76984 11.0693 4.85315C11.0768 4.87481 11.0659 4.89814 11.0443 4.90647C11.0226 4.9148 10.9993 4.90314 10.991 4.88231L10.8826 4.59071C10.8826 4.58988 10.8818 4.58905 10.8818 4.58821C10.4111 3.351 10.1378 3.00775 10.0795 2.9436L3.30526 3.6651C3.20695 3.77757 2.41463 4.74818 2.32548 6.81352C2.32465 6.83602 2.30382 6.85518 2.28216 6.85352C2.25883 6.85268 2.24134 6.83269 2.24217 6.81019C2.25467 6.53692 2.27883 6.28198 2.31132 6.04621Z" fill="black"/>
<path d="M15.1183 21.111L16.6172 17.9601L9.89457 15.7739L9.86125 15.7631C9.80293 15.7473 9.74377 15.7348 9.68379 15.7298C9.35636 15.7006 9.26055 15.8381 9.12059 16.1622C8.97979 16.4888 8.9373 16.6496 9.20807 16.912C9.25306 16.9553 9.30138 16.9945 9.35137 17.0311L15.1183 21.111Z" fill="#EBBBB3"/>
<path d="M15.1184 21.1527C15.1101 21.1527 15.1017 21.1502 15.0942 21.1452L9.32807 17.0645C9.26892 17.0211 9.2206 16.9811 9.17978 16.9412C8.88318 16.6546 8.9465 16.4613 9.08313 16.1455C9.22726 15.8114 9.33391 15.6565 9.68799 15.6881C9.74548 15.6931 9.8063 15.7048 9.87295 15.7231L9.90794 15.7339L16.6305 17.9209C16.6422 17.9243 16.6514 17.9334 16.6555 17.9443C16.6605 17.9551 16.6597 17.9676 16.6547 17.9784L15.1559 21.1293C15.1509 21.1402 15.1409 21.1485 15.1284 21.1518C15.1259 21.1518 15.1226 21.1527 15.1184 21.1527ZM9.60218 15.7664C9.3614 15.7664 9.28392 15.8897 9.15978 16.1772C9.01815 16.5046 8.99065 16.6404 9.2381 16.8803C9.27642 16.9178 9.32224 16.9553 9.37723 16.9961L15.1026 21.0477L16.5597 17.9842L9.84879 15.8014C9.7888 15.7848 9.73298 15.7739 9.68049 15.7698C9.65217 15.7681 9.62634 15.7664 9.60218 15.7664Z" fill="black"/>
<path d="M16.8167 19.963C17.2087 19.0783 17.1343 18.1873 16.6505 17.973C16.1667 17.7586 15.4567 18.302 15.0648 19.1868C14.6728 20.0715 14.7472 20.9625 15.231 21.1768C15.7148 21.3912 16.4247 20.8477 16.8167 19.963Z" fill="#F4A37F"/>
<path d="M15.4533 21.2651C15.3691 21.2651 15.2883 21.2493 15.2133 21.2159C14.7093 20.9927 14.6251 20.0754 15.0259 19.1706C15.4266 18.2658 16.1631 17.7126 16.6663 17.935C16.9146 18.045 17.0696 18.3216 17.1029 18.7132C17.1346 19.0956 17.0462 19.5455 16.8538 19.9804C16.513 20.7494 15.9298 21.2651 15.4533 21.2651ZM16.4206 17.9675C15.979 17.9675 15.4291 18.4657 15.1017 19.2039C14.7193 20.0662 14.7843 20.9343 15.2467 21.1393C15.7091 21.3442 16.3956 20.8085 16.778 19.9462C16.9646 19.5247 17.0504 19.0889 17.0196 18.7199C16.9896 18.3599 16.8521 18.1083 16.633 18.0109C16.5664 17.9817 16.4947 17.9675 16.4206 17.9675Z" fill="black"/>
<path d="M16.583 19.8595C16.8705 19.2108 16.816 18.5575 16.4613 18.4004C16.1067 18.2433 15.5862 18.6418 15.2988 19.2905C15.0113 19.9392 15.0658 20.5925 15.4205 20.7496C15.7751 20.9067 16.2956 20.5082 16.583 19.8595Z" fill="black"/>
<path d="M15.5826 20.8253C15.5201 20.8253 15.4593 20.8136 15.4026 20.7886C15.0277 20.622 14.9636 19.943 15.2593 19.2748C15.5559 18.6058 16.1016 18.1975 16.4774 18.3633C16.8523 18.53 16.9164 19.209 16.6207 19.8771C16.3691 20.4445 15.9367 20.8253 15.5826 20.8253ZM16.2916 18.4075C15.9725 18.4075 15.5734 18.7707 15.336 19.3073C15.0585 19.9338 15.1035 20.5637 15.4368 20.712C15.77 20.8594 16.2666 20.4695 16.5449 19.843C16.8223 19.2165 16.7773 18.5866 16.4441 18.4392C16.3957 18.4175 16.3449 18.4075 16.2916 18.4075Z" fill="black"/>
<path d="M13.1791 23.3313L14.9603 19.8321L7.46373 17.1686L7.42624 17.1553C7.36125 17.1353 7.29544 17.1194 7.22795 17.1119C6.86054 17.0694 6.7489 17.2211 6.58144 17.581C6.41231 17.9442 6.36066 18.1242 6.65725 18.4266C6.70641 18.4766 6.75973 18.5224 6.81472 18.5658L13.1791 23.3313Z" fill="#EBBBB3"/>
<path d="M13.179 23.373C13.1698 23.373 13.1615 23.3705 13.154 23.3647L6.7905 18.5991C6.72552 18.5483 6.67303 18.5017 6.62804 18.4558C6.30561 18.1268 6.38226 17.9126 6.54473 17.5635C6.71635 17.1936 6.84049 17.0245 7.23373 17.0703C7.29788 17.0778 7.36537 17.0928 7.43952 17.1153L7.47867 17.1287L14.9752 19.7922C14.9869 19.7964 14.9952 19.8047 15.0002 19.8164C15.0044 19.8272 15.0044 19.8397 14.9986 19.8505L13.2173 23.3497C13.2115 23.3605 13.2015 23.3689 13.1898 23.3714C13.1848 23.373 13.1815 23.373 13.179 23.373ZM7.11709 17.147C6.85715 17.147 6.76301 17.2903 6.61887 17.5985C6.44891 17.9651 6.41309 18.1184 6.68636 18.3975C6.72968 18.4417 6.778 18.4842 6.83966 18.5325L13.1632 23.268L14.9003 19.8555L7.41119 17.1945C7.34371 17.1736 7.28122 17.1603 7.22207 17.1536C7.18541 17.1495 7.14958 17.147 7.11709 17.147Z" fill="black"/>
<path d="M15.1226 22.094C15.5905 21.1105 15.5339 20.1059 14.9963 19.8501C14.4586 19.5943 13.6434 20.1843 13.1756 21.1677C12.7077 22.1512 12.7642 23.1558 13.3019 23.4116C13.8395 23.6674 14.6547 23.0775 15.1226 22.094Z" fill="#F4A37F"/>
<path d="M13.5755 23.5122C13.4722 23.5122 13.3739 23.4914 13.2839 23.4481C13.0098 23.3172 12.8449 23.0032 12.8199 22.5633C12.7957 22.1325 12.9082 21.6301 13.1381 21.1478C13.3672 20.6662 13.6863 20.2613 14.0354 20.008C14.392 19.7498 14.7403 19.6798 15.0144 19.8097C15.5717 20.0747 15.6375 21.1069 15.1602 22.1092C14.931 22.5908 14.6119 22.9957 14.2629 23.2489C14.0229 23.4231 13.788 23.5122 13.5755 23.5122ZM14.7219 19.8297C14.5278 19.8297 14.3087 19.913 14.0837 20.0763C13.7455 20.3213 13.4364 20.7145 13.2123 21.1844C12.989 21.6543 12.879 22.1425 12.9023 22.5591C12.9257 22.9673 13.0731 23.2564 13.3189 23.3731C13.5647 23.4897 13.8821 23.4222 14.2129 23.1831C14.5511 22.9382 14.8602 22.5449 15.0843 22.075C15.5417 21.1136 15.4934 20.1322 14.9777 19.8864C14.8994 19.8481 14.8136 19.8297 14.7219 19.8297Z" fill="black"/>
<path d="M14.8632 21.9706C15.2064 21.2493 15.1649 20.5125 14.7706 20.3249C14.3763 20.1373 13.7785 20.57 13.4353 21.2913C13.0921 22.0126 13.1336 22.7494 13.5279 22.937C13.9222 23.1245 14.5201 22.6919 14.8632 21.9706Z" fill="black"/>
<path d="M13.7249 23.0198C13.6491 23.0198 13.5774 23.0048 13.5108 22.9732C13.3058 22.8757 13.1825 22.6416 13.1642 22.315C13.1467 21.9976 13.2292 21.6268 13.3983 21.2719C13.7507 20.5312 14.3747 20.0888 14.7888 20.2863C14.9937 20.3838 15.117 20.6179 15.1354 20.9445C15.1529 21.2619 15.0704 21.6327 14.9013 21.9876C14.6047 22.6083 14.1181 23.0198 13.7249 23.0198ZM14.568 20.3205C14.2089 20.3205 13.7549 20.7154 13.4733 21.3069C13.31 21.6493 13.23 22.0059 13.2475 22.3092C13.2641 22.6041 13.37 22.8124 13.5466 22.8965C13.919 23.074 14.493 22.6491 14.8263 21.9501C14.9896 21.6077 15.0696 21.2511 15.0521 20.9478C15.0354 20.6529 14.9296 20.4446 14.753 20.3604C14.6955 20.3338 14.633 20.3205 14.568 20.3205Z" fill="black"/>
<path d="M10.0613 21.0968C10.0613 21.0968 9.86221 21.4326 9.53479 21.1427C9.20736 20.8527 9.57228 19.3831 9.86304 18.9223C10.1538 18.4616 10.582 18.1025 11.0811 18.1109C11.5793 18.1192 11.9134 18.31 12.1858 18.2125C12.4583 18.115 12.7299 17.7626 13.0006 17.3535C13.2714 16.9445 13.7338 16.647 14.0537 16.6579C14.3736 16.6687 14.7252 16.952 14.7077 17.1153C14.6902 17.2786 14.4953 17.1894 14.2645 17.1719C14.0346 17.1544 13.5655 17.3619 13.3622 17.6376C13.1589 17.9134 12.7207 18.6091 12.6057 18.6732C12.4399 18.7649 11.5718 18.5499 11.2652 18.5858C10.9595 18.6216 10.4621 18.7915 10.3029 19.2306C10.1446 19.6713 10.0613 21.0968 10.0613 21.0968Z" fill="#F4A37F"/>
<path d="M9.79301 21.3026C9.69887 21.3026 9.60306 21.2592 9.50641 21.1743C9.14733 20.856 9.55307 19.3347 9.82717 18.9006C10.1613 18.3716 10.6112 18.0692 11.0635 18.0692C11.0694 18.0692 11.0752 18.0692 11.081 18.0692C11.3043 18.0733 11.4934 18.1125 11.6609 18.1475C11.8667 18.1908 12.0292 18.2241 12.1708 18.1741C12.4432 18.0767 12.7257 17.6934 12.9648 17.3318C13.2372 16.9203 13.7163 16.607 14.0545 16.6178C14.2895 16.6262 14.5369 16.7728 14.6594 16.9128C14.7244 16.9877 14.7552 17.0594 14.7493 17.121C14.7443 17.1669 14.7269 17.2019 14.6977 17.2244C14.6369 17.271 14.5444 17.256 14.4269 17.2368C14.3744 17.2285 14.3194 17.2194 14.262 17.2152C14.0395 17.1985 13.5863 17.406 13.3963 17.6642C13.3313 17.7517 13.2422 17.8834 13.1481 18.0225C12.8856 18.4091 12.7073 18.6665 12.6265 18.7115C12.5307 18.7648 12.2899 18.7357 11.9042 18.6823C11.6584 18.6482 11.4043 18.6132 11.271 18.629C10.9311 18.669 10.4845 18.8548 10.3437 19.2464C10.1888 19.6746 10.1054 21.0859 10.1046 21.1001C10.1046 21.1068 10.1021 21.1134 10.0988 21.1193C10.0954 21.1259 10.0055 21.2742 9.843 21.3001C9.82551 21.3017 9.80968 21.3026 9.79301 21.3026ZM11.0644 18.1525C10.6403 18.1525 10.2162 18.4399 9.89799 18.9448C9.61639 19.3913 9.26064 20.8452 9.56223 21.1118C9.65555 21.1943 9.74386 21.2292 9.82717 21.2167C9.93215 21.2009 10.0013 21.1109 10.0196 21.0834C10.028 20.9393 10.1104 19.6421 10.2629 19.2172C10.462 18.6657 11.1277 18.5607 11.2593 18.5457C11.4035 18.529 11.6626 18.5649 11.9133 18.5999C12.1908 18.6382 12.5057 18.6815 12.584 18.6382C12.654 18.5999 12.8981 18.2391 13.0772 17.9758C13.1722 17.8359 13.2622 17.7034 13.3272 17.6143C13.5355 17.331 14.0204 17.1127 14.2661 17.131C14.3269 17.136 14.3861 17.1452 14.4378 17.1535C14.5277 17.1685 14.6127 17.1819 14.6452 17.1577C14.6494 17.1544 14.661 17.1452 14.6652 17.1119C14.6694 17.0752 14.6435 17.0227 14.5952 16.9669C14.4844 16.8394 14.262 16.7078 14.0512 16.7003C13.7379 16.6911 13.2922 16.9869 13.0339 17.3768C12.774 17.7692 12.4932 18.1466 12.1983 18.2516C12.035 18.3099 11.8534 18.2724 11.6434 18.2283C11.4801 18.1941 11.2952 18.1558 11.0794 18.1516C11.0744 18.1525 11.0694 18.1525 11.0644 18.1525Z" fill="black"/>
<path d="M3.86036 9.79868C3.63208 9.79868 3.44629 9.63538 3.44629 9.43376C3.44629 9.23214 3.63208 9.06885 3.86036 9.06885C3.88369 9.06885 3.90202 9.08718 3.90202 9.1105C3.90202 9.13383 3.88369 9.15216 3.86036 9.15216C3.6779 9.15216 3.5296 9.27796 3.5296 9.43376C3.5296 9.58956 3.6779 9.71536 3.86036 9.71536C3.88369 9.71536 3.90202 9.73369 3.90202 9.75702C3.90202 9.78035 3.88369 9.79868 3.86036 9.79868Z" fill="black"/>
<path d="M-3.74537 30.1455C-3.74537 30.1455 4.57351 24.4968 5.8582 23.6503C7.1429 22.8039 7.09458 22.7314 7.10041 22.1815C7.10624 21.6891 7.2812 18.9181 7.2812 18.9181L8.06602 19.513C8.06602 19.513 8.38428 21.2809 8.56007 20.6935C8.67004 20.3253 8.81417 19.9662 9.01413 19.638C9.4282 18.9556 9.58899 18.8181 9.84393 18.6249C10.0031 18.5041 10.2763 18.3916 10.3971 18.4457C10.5179 18.5007 10.3463 18.8273 10.4005 18.7832C10.7762 18.5315 10.957 18.5807 11.012 18.6624C11.067 18.7448 10.9245 18.949 10.9245 18.949C10.9245 18.949 11.057 18.8706 11.177 18.8406C11.2969 18.8106 11.3586 18.8523 11.3427 18.9873C11.3336 19.0656 10.7912 20.0254 10.7912 20.0254C10.443 20.6944 10.4763 20.8852 10.6487 20.901C10.8537 20.886 11.3719 20.3953 11.8218 20.0054C12.26 19.6263 12.0776 20.1437 11.9968 20.2861C11.771 20.6869 10.9079 21.8099 10.7412 22.0174C10.5804 22.2174 6.25061 27.0096 5.26834 28.0868C3.47376 30.0547 -0.00791813 33.9104 -2.7956 34.7277C-4.31024 35.1718 -5.86071 34.5378 -6.40058 33.1806C-6.94045 31.8234 -5.99318 28.2726 -5.99318 28.2726L-2.14242 29.0574" fill="#FCF1BF"/>
<path d="M-3.7521 34.9094C-4.94599 34.9094 -6.01657 34.2637 -6.44064 33.1973C-6.97968 31.8426 -6.07323 28.4093 -6.03407 28.2635C-6.02824 28.2418 -6.00658 28.2293 -5.98575 28.2335L-2.15248 29.015C0.336935 27.3262 4.91586 24.2228 5.83481 23.6171C7.05369 22.8139 7.05452 22.7264 7.05786 22.2415L7.05869 22.1832C7.06369 21.695 7.23782 18.9448 7.23948 18.9173C7.24032 18.9023 7.24948 18.8882 7.26364 18.8823C7.27781 18.8757 7.29363 18.8782 7.30613 18.8873L8.09095 19.4822C8.09928 19.4889 8.10511 19.498 8.10678 19.508C8.22675 20.1754 8.39671 20.7544 8.47752 20.7736C8.47752 20.7727 8.49669 20.7611 8.51918 20.6836C8.64248 20.2712 8.79245 19.9221 8.97741 19.618C9.39314 18.9332 9.55977 18.789 9.81804 18.5932C9.97467 18.4741 10.2696 18.3441 10.4129 18.4099C10.5137 18.4558 10.4812 18.6007 10.4521 18.7024C10.6887 18.5591 10.8345 18.5457 10.9178 18.5624C10.9894 18.5766 11.0269 18.6132 11.0453 18.6416C11.0819 18.6965 11.0603 18.7807 11.0278 18.8515C11.0702 18.8332 11.1186 18.814 11.1652 18.8024C11.2419 18.7832 11.3002 18.7907 11.3385 18.824C11.3768 18.8582 11.3918 18.9148 11.3827 18.994C11.3735 19.0748 10.9536 19.8213 10.8253 20.0479C10.5545 20.5686 10.5404 20.7561 10.5762 20.8219C10.5845 20.8369 10.6012 20.8569 10.6503 20.8619C10.7995 20.8502 11.2027 20.4945 11.5585 20.1812C11.6368 20.112 11.7151 20.0429 11.7917 19.9762C11.9484 19.8396 12.0459 19.8005 12.105 19.8496C12.22 19.9438 12.0325 20.3062 12.0309 20.3095C11.7976 20.7236 10.9111 21.8733 10.772 22.0466C10.6104 22.2482 6.3122 27.0054 5.29744 28.1185L5.20912 28.2151C3.37789 30.2238 -0.0321445 33.9638 -2.78566 34.7711C-3.10976 34.8636 -3.43551 34.9094 -3.7521 34.9094ZM-5.96409 28.3226C-6.06323 28.7084 -6.86221 31.9118 -6.36316 33.1665C-5.84245 34.4762 -4.31447 35.1302 -2.80816 34.6886C-0.0763007 33.888 3.32207 30.1597 5.14831 28.156L5.23662 28.0594C6.17473 27.0304 10.5487 22.1891 10.7078 21.9916C10.8986 21.7542 11.7393 20.6561 11.9592 20.2662C12.0292 20.142 12.0842 19.9363 12.0534 19.9121C12.0534 19.9113 12.0117 19.8954 11.8476 20.0379C11.7709 20.1037 11.6926 20.1729 11.6143 20.242C11.2127 20.5961 10.8336 20.9302 10.6495 20.9435C10.577 20.9377 10.5295 20.9094 10.5029 20.861C10.4337 20.7344 10.5104 20.4711 10.752 20.0071C10.9569 19.6438 11.2869 19.0465 11.2994 18.9823C11.3052 18.9348 11.2994 18.8998 11.2827 18.8857C11.2669 18.8715 11.2319 18.8698 11.1844 18.8823C11.0719 18.9107 10.9444 18.9856 10.9428 18.9865C10.9261 18.9965 10.9045 18.9931 10.8911 18.979C10.8778 18.9648 10.8761 18.9432 10.8878 18.9265C10.9403 18.8507 11.0003 18.7249 10.9753 18.6865C10.9653 18.6716 10.9436 18.6516 10.9003 18.6424C10.8378 18.6299 10.6928 18.6366 10.4212 18.8182C10.3954 18.839 10.3721 18.8265 10.3654 18.8215C10.3346 18.8007 10.3438 18.769 10.3621 18.7065C10.3779 18.6516 10.4212 18.5041 10.3771 18.4841C10.2779 18.4391 10.0213 18.5407 9.86637 18.6582C9.60893 18.8532 9.45563 18.9865 9.04739 19.6605C8.8666 19.9588 8.71913 20.3012 8.59833 20.7069C8.57833 20.7727 8.54168 20.8594 8.47169 20.856C8.28507 20.8452 8.10011 19.9438 8.0268 19.538L7.31696 18.9998C7.28864 19.4522 7.14617 21.7442 7.14117 22.1841L7.14034 22.2424C7.13617 22.7714 7.10118 22.8822 5.8798 23.687C4.6101 24.5235 -3.64046 30.1247 -3.72294 30.1814C-3.74211 30.1947 -3.76793 30.1897 -3.78043 30.1705C-3.79293 30.1514 -3.78876 30.1255 -3.7696 30.113C-3.74711 30.098 -3.14558 29.689 -2.24912 29.0816L-5.96409 28.3226ZM10.3737 18.7499C10.3729 18.7499 10.3729 18.7507 10.3721 18.7507C10.3729 18.7507 10.3737 18.7507 10.3737 18.7499Z" fill="black"/>
<path d="M9.43462 20.4744C9.43212 20.4744 9.42878 20.4744 9.42629 20.4736C9.40379 20.4686 9.38963 20.4469 9.39379 20.4244C9.55042 19.6588 9.88868 19.0889 10.4002 18.7307C10.4186 18.7173 10.4452 18.7223 10.4585 18.7407C10.4719 18.7598 10.4669 18.7857 10.4485 18.799C9.95533 19.1439 9.6279 19.6963 9.47544 20.4411C9.47127 20.4611 9.45378 20.4744 9.43462 20.4744Z" fill="black"/>
<path d="M10.0171 20.6603C10.0138 20.6603 10.0105 20.6603 10.008 20.6595C9.98548 20.6545 9.97131 20.632 9.97714 20.6095C10.2079 19.6272 10.6387 19.1207 10.9594 18.8682C10.9777 18.854 11.0036 18.8574 11.0177 18.8749C11.0319 18.8932 11.0286 18.919 11.0111 18.9332C10.7003 19.1773 10.2837 19.6697 10.0588 20.6278C10.0538 20.6478 10.0363 20.6603 10.0171 20.6603Z" fill="black"/>
<path d="M25.2341 19.8494C26.0535 20.0875 27.6432 20.4221 28.9131 19.9149C28.9707 19.8921 29.0337 19.9231 29.0492 19.9826C29.1632 20.4363 29.6484 22.1426 30.7215 23.1269C30.8003 23.1983 30.7299 23.3271 30.6278 23.3009C29.8821 23.108 28.4727 22.8531 27.2708 23.2752C27.2182 23.294 27.1627 23.2688 27.1431 23.2164C26.9896 22.7959 26.2725 21.0596 25.1378 20.0233C25.058 19.9513 25.1301 19.8195 25.2341 19.8494Z" fill="#F4A37F"/>
</g>
</g>
<path d="M18.6951 13.647H18.6945C18.6649 13.6465 18.6413 13.6261 18.6369 13.5964L18.429 12.2212L18.4059 12.1964L18.4224 12.2184L17.3541 13.0095C17.33 13.0271 17.2987 13.0249 17.2773 13.004C17.2559 12.9831 17.2532 12.9517 17.2702 12.9275L18.0509 11.8209L17.2 10.7072C17.1824 10.6841 17.1835 10.6533 17.2027 10.6318C17.2219 10.6103 17.2526 10.6054 17.2773 10.6202L18.3741 11.2732L18.3801 11.2682L18.1332 10.514C18.1239 10.4859 18.136 10.4567 18.1618 10.443C18.1876 10.4292 18.2183 10.4358 18.2364 10.4595L18.7055 11.0728L18.7132 11.0717L19.0747 9.90841C19.083 9.88198 19.1071 9.86491 19.1351 9.86657C19.1625 9.86822 19.1845 9.88804 19.19 9.91501L19.4199 11.1829L19.4347 11.2121L19.4253 11.1862L20.4223 10.8283C20.4492 10.8184 20.4771 10.8283 20.4925 10.8526C20.5079 10.8768 20.504 10.9065 20.4837 10.9263L19.7189 11.6817L19.7024 11.7103L19.7189 11.6883L20.5666 12.3351C20.588 12.3516 20.5956 12.3792 20.5858 12.404C20.5759 12.4287 20.5518 12.4441 20.5249 12.4414L19.5219 12.3417L19.4923 12.3588L19.5175 12.3478L19.9301 13.3178C19.9416 13.3448 19.9323 13.3751 19.9082 13.391C19.8835 13.407 19.8528 13.4032 19.8325 13.3817L18.9612 12.4469L18.9535 12.4491L18.7527 13.5975C18.7483 13.6267 18.7241 13.647 18.6951 13.647ZM18.424 12.1623C18.4317 12.1623 18.4394 12.1639 18.4465 12.1667C18.4657 12.1749 18.4794 12.192 18.4822 12.2124L18.6901 13.5876C18.6901 13.5892 18.6901 13.5909 18.6945 13.5914C18.6978 13.5914 18.6984 13.5892 18.6989 13.5881L18.8997 12.4397C18.9036 12.4172 18.9195 12.3995 18.9409 12.3929C18.9623 12.3863 18.9853 12.3929 19.0012 12.4095L19.8725 13.3443C19.8736 13.3454 19.8747 13.347 19.878 13.3448C19.8813 13.3426 19.8802 13.3409 19.8796 13.3393L19.467 12.3693C19.4588 12.35 19.461 12.328 19.4736 12.3109C19.4862 12.2938 19.506 12.285 19.5274 12.2867L20.5304 12.3863L20.5336 12.3786L19.686 11.7312C19.6722 11.7207 19.664 11.7048 19.6629 11.6877C19.6618 11.6706 19.6684 11.6536 19.6805 11.6415L20.4453 10.8861L20.4316 10.8531L20.4409 10.879L19.444 11.2368C19.4275 11.2429 19.4094 11.2412 19.3946 11.2324C19.3798 11.2236 19.3688 11.2088 19.3661 11.1917L19.1362 9.92382L19.1016 9.91501L19.128 9.92327L18.7664 11.0865C18.7598 11.108 18.7423 11.1234 18.7203 11.1273C18.6984 11.1311 18.6764 11.1229 18.6627 11.1053L18.1936 10.492C18.1925 10.4909 18.1914 10.4892 18.1881 10.4909C18.1848 10.4925 18.1854 10.4947 18.1859 10.4958L18.4328 11.25C18.4405 11.2737 18.4328 11.299 18.4136 11.315C18.3944 11.3304 18.3681 11.3326 18.3461 11.32L17.2493 10.667C17.2482 10.6665 17.246 10.6654 17.2438 10.6681C17.2416 10.6709 17.2427 10.6725 17.2438 10.6736L18.0943 11.7819C18.1102 11.8028 18.1107 11.8309 18.0959 11.8523L17.3152 12.9589C17.3141 12.96 17.313 12.9616 17.3157 12.9644C17.3185 12.9671 17.3201 12.9655 17.3212 12.9649L18.3884 12.1738C18.3993 12.1661 18.4114 12.1623 18.424 12.1623Z" fill="#F4A37F"/>
<path d="M7.42109 3.3605C7.42109 3.3605 8.28547 2.50345 8.40572 3.39448C8.52596 4.28551 6.38331 4.48986 7.42109 3.3605Z" fill="#F4A37F"/>
<path d="M4.73253 15.3819C4.52826 15.5778 4.16852 15.9789 4.10361 16.4278C4.1006 16.4481 4.08127 16.4611 4.0616 16.4557C3.91236 16.4132 3.34179 16.2696 2.88109 16.4146C2.84753 16.4254 2.8222 16.3838 2.84665 16.3588C3.02573 16.1766 3.33268 15.8141 3.41075 15.3988C3.41408 15.3806 3.43053 15.3688 3.44882 15.3719C3.59505 15.3975 4.21272 15.4795 4.69857 15.3254C4.73247 15.3144 4.75839 15.357 4.73253 15.3819Z" fill="#F4A37F"/>
<path d="M1.04031 13.142C0.803143 12.4249 0.932632 11.6046 1.45568 10.9822C2.10202 10.2137 3.25474 10.1093 4.02475 10.7494C4.64444 11.2647 4.72564 12.1878 4.20564 12.8072C3.78611 13.3061 3.03733 13.3742 2.53747 12.9587C2.34127 12.7959 2.22199 12.5665 2.19883 12.3134C2.17658 12.0599 2.25456 11.8134 2.41897 11.6176C2.69358 11.291 3.18358 11.2463 3.51078 11.5183C3.63997 11.625 3.71839 11.7767 3.73313 11.9433C3.74787 12.11 3.6966 12.2724 3.58791 12.4016C3.40615 12.6182 3.08161 12.6473 2.86458 12.4673C2.77825 12.3956 2.72597 12.2955 2.71644 12.1843C2.70692 12.0731 2.7407 11.9646 2.81316 11.8785C2.87253 11.8077 2.95601 11.764 3.04813 11.7556C3.14025 11.7472 3.2301 11.7747 3.30013 11.8338C3.31975 11.8503 3.32265 11.8805 3.3062 11.901C3.28976 11.9214 3.25916 11.9235 3.23863 11.9073C3.18731 11.865 3.12288 11.8442 3.05621 11.8502C2.98955 11.8562 2.92944 11.8881 2.88651 11.9385C2.8308 12.005 2.80379 12.0882 2.81221 12.1747C2.81941 12.2606 2.86028 12.3384 2.92699 12.3935C3.10357 12.5398 3.36721 12.5158 3.51517 12.3404C3.60741 12.2317 3.65071 12.094 3.63828 11.9526C3.62585 11.8113 3.55945 11.6838 3.44958 11.5927C3.31043 11.4772 3.13467 11.422 2.95346 11.4388C2.77315 11.4553 2.60861 11.5408 2.49201 11.6797C2.34435 11.856 2.27343 12.078 2.29337 12.3062C2.3133 12.5343 2.42178 12.7402 2.59745 12.8867C3.05716 13.2694 3.74504 13.2064 4.13138 12.7475C4.36672 12.4671 4.4797 12.1127 4.44731 11.7492C4.41493 11.3858 4.24275 11.0575 3.96264 10.8241C3.60917 10.5308 3.16115 10.3911 2.70146 10.4328C2.24177 10.4745 1.82495 10.6916 1.52872 11.0443C1.15547 11.4878 0.978609 12.0489 1.02827 12.6233C1.07915 13.1983 1.35107 13.7183 1.79509 14.087C1.81501 14.1045 1.81761 14.1338 1.80117 14.1543C1.78473 14.1747 1.75412 14.1768 1.73359 14.1606C1.40036 13.8826 1.16772 13.5272 1.04031 13.142Z" fill="#F4A37F"/>
<defs>
<clipPath id="clip0_234_2880">
<rect width="73.5661" height="78.0259" fill="white" transform="translate(-7.90869 2.85779)"/>
</clipPath>
</defs>
</svg>
