<svg width="78" height="27" viewBox="0 0 78 27" fill="none" xmlns="http://www.w3.org/2000/svg">
<path d="M30.1868 12V0.824997H34.5451C35.3493 0.824997 36.0569 0.964996 36.668 1.245C37.2792 1.515 37.7563 1.91499 38.0994 2.445C38.4532 2.965 38.6301 3.59 38.6301 4.32C38.6301 5.08999 38.421 5.74999 38.0029 6.3C37.5955 6.85001 37.0433 7.24999 36.3464 7.5L39.1126 12H36.9575L34.0144 7.125L35.2528 7.8H32.0845V12H30.1868ZM32.0845 6.225H34.5773C35.0169 6.225 35.3975 6.14501 35.7192 5.985C36.0408 5.82499 36.2874 5.60501 36.459 5.325C36.6412 5.03501 36.7324 4.695 36.7324 4.305C36.7324 3.915 36.6412 3.58 36.459 3.3C36.2874 3.01 36.0408 2.79 35.7192 2.64C35.3975 2.48 35.0169 2.4 34.5773 2.4H32.0845V6.225ZM43.138 12.18C42.5482 12.18 42.0283 12.085 41.578 11.895C41.1386 11.695 40.7952 11.425 40.5487 11.085C40.3023 10.735 40.1788 10.325 40.1788 9.855C40.1788 9.41501 40.2806 9.01999 40.4844 8.67C40.6987 8.32001 41.026 8.025 41.4654 7.785C41.9049 7.545 42.4573 7.37501 43.1219 7.275L46.1454 6.81V8.145L43.4757 8.58C42.9933 8.65999 42.6395 8.805 42.4143 9.015C42.1891 9.21499 42.0766 9.47501 42.0766 9.795C42.0766 10.105 42.2 10.36 42.4465 10.56C42.7038 10.75 43.0307 10.845 43.4275 10.845C43.9208 10.845 44.3494 10.745 44.7141 10.545C45.0892 10.345 45.3787 10.08 45.5825 9.75C45.7864 9.40999 45.8881 9.03499 45.8881 8.625V6.54C45.8881 6.13999 45.7273 5.81501 45.4056 5.565C45.0948 5.30501 44.6767 5.175 44.1512 5.175C43.6687 5.175 43.2454 5.295 42.8807 5.535C42.5269 5.76499 42.2643 6.06499 42.0927 6.435L40.5809 5.73C40.7417 5.32999 41.0043 4.98 41.3689 4.68C41.7336 4.36998 42.157 4.12999 42.6395 3.96C43.1328 3.79001 43.6527 3.705 44.1995 3.705C44.8858 3.705 45.4913 3.825 46.0168 4.065C46.5527 4.305 46.9656 4.63999 47.2551 5.07C47.5555 5.49 47.7054 5.98001 47.7054 6.54V12H45.9685V10.53L46.3384 10.575C46.1346 10.905 45.872 11.19 45.5504 11.43C45.2396 11.67 44.8801 11.855 44.4729 11.985C44.076 12.115 43.6313 12.18 43.138 12.18ZM51.9371 12L48.9458 3.885H50.8757L53.1594 10.35H52.4839L54.8159 3.885H56.4724L58.7883 10.35H58.1128L60.4126 3.885H62.3425L59.3351 12H57.6947L55.3466 5.385H55.9417L53.5936 12H51.9371ZM65.8794 12.18C65.29 12.18 64.7697 12.085 64.3194 11.895C63.88 11.695 63.537 11.425 63.2902 11.085C63.0437 10.735 62.9203 10.325 62.9203 9.855C62.9203 9.41501 63.0224 9.01999 63.2258 8.67C63.4405 8.32001 63.7674 8.025 64.2069 7.785C64.6467 7.545 65.1987 7.37501 65.8633 7.275L68.8869 6.81V8.145L66.2172 8.58C65.7347 8.65999 65.3809 8.805 65.1557 9.015C64.9306 9.21499 64.818 9.47501 64.818 9.795C64.818 10.105 64.9414 10.36 65.1879 10.56C65.4452 10.75 65.7725 10.845 66.1689 10.845C66.6622 10.845 67.0912 10.745 67.4555 10.545C67.831 10.345 68.1205 10.08 68.324 9.75C68.5278 9.40999 68.6295 9.03499 68.6295 8.625V6.54C68.6295 6.13999 68.4687 5.81501 68.1471 5.565C67.8363 5.30501 67.4181 5.175 66.8926 5.175C66.4101 5.175 65.9868 5.295 65.6221 5.535C65.2683 5.76499 65.0057 6.06499 64.8341 6.435L63.3223 5.73C63.4831 5.32999 63.7461 4.98 64.1104 4.68C64.475 4.36998 64.8984 4.12999 65.3809 3.96C65.8742 3.79001 66.3941 3.705 66.9409 3.705C67.6272 3.705 68.2331 3.825 68.7582 4.065C69.2945 4.305 69.7071 4.63999 69.9965 5.07C70.2969 5.49 70.4469 5.98001 70.4469 6.54V12H68.7099V10.53L69.0798 10.575C68.8764 10.905 68.6135 11.19 68.2918 11.43C67.981 11.67 67.622 11.855 67.2143 11.985C66.8178 12.115 66.3728 12.18 65.8794 12.18ZM76.1782 12.09C75.2668 12.09 74.5591 11.85 74.0554 11.37C73.5512 10.89 73.2995 10.215 73.2995 9.345V5.415H71.7716V3.885H72.0129C72.4202 3.885 72.7366 3.77501 72.9617 3.555C73.1869 3.335 73.2995 3.035 73.2995 2.655V2.025H75.1168V3.885H77.0949V5.415H75.1168V9.27C75.1168 9.55001 75.165 9.79001 75.2615 9.99C75.358 10.18 75.5132 10.33 75.7279 10.44C75.9422 10.54 76.2209 10.59 76.5642 10.59C76.6499 10.59 76.7464 10.585 76.8537 10.575C76.9607 10.565 77.0628 10.555 77.1593 10.545V12C77.0089 12.02 76.8429 12.04 76.6607 12.06C76.4782 12.08 76.3174 12.09 76.1782 12.09Z" fill="#1FA8F6"/>
<path d="M30.1868 24V12.825H32.0845V24H30.1868ZM34.3917 24V15.885H36.1286V17.475L35.9196 17.265C36.134 16.755 36.4771 16.37 36.9488 16.11C37.4206 15.84 37.9674 15.705 38.5892 15.705C39.2325 15.705 39.8008 15.835 40.2938 16.095C40.7872 16.355 41.1731 16.715 41.4518 17.175C41.7308 17.635 41.8699 18.165 41.8699 18.765V24H40.0688V19.215C40.0688 18.805 39.9884 18.46 39.8276 18.18C39.6668 17.89 39.4363 17.67 39.1361 17.52C38.8466 17.36 38.5142 17.28 38.1389 17.28C37.7637 17.28 37.426 17.36 37.1257 17.52C36.8363 17.67 36.6111 17.89 36.4503 18.18C36.2895 18.47 36.209 18.815 36.209 19.215V24H34.3917ZM46.4204 24.18C45.8306 24.18 45.3108 24.085 44.8604 23.895C44.421 23.695 44.0776 23.425 43.8312 23.085C43.5847 22.735 43.4613 22.325 43.4613 21.855C43.4613 21.415 43.563 21.02 43.7668 20.67C43.9811 20.32 44.3084 20.025 44.7479 19.785C45.1873 19.545 45.7398 19.375 46.4044 19.275L49.4279 18.81V20.145L46.7582 20.58C46.2757 20.66 45.9219 20.805 45.6967 21.015C45.4716 21.215 45.359 21.475 45.359 21.795C45.359 22.105 45.4824 22.36 45.7289 22.56C45.9862 22.75 46.3131 22.845 46.7099 22.845C47.2033 22.845 47.6319 22.745 47.9965 22.545C48.3717 22.345 48.6611 22.08 48.865 21.75C49.0688 21.41 49.1706 21.035 49.1706 20.625V18.54C49.1706 18.14 49.0097 17.815 48.6881 17.565C48.3773 17.305 47.9591 17.175 47.4336 17.175C46.9512 17.175 46.5278 17.295 46.1631 17.535C45.8093 17.765 45.5468 18.065 45.3751 18.435L43.8633 17.73C44.0242 17.33 44.2867 16.98 44.6514 16.68C45.016 16.37 45.4394 16.13 45.9219 15.96C46.4152 15.79 46.9351 15.705 47.4819 15.705C48.1682 15.705 48.7737 15.825 49.2992 16.065C49.8352 16.305 50.2481 16.64 50.5376 17.07C50.8379 17.49 50.9879 17.98 50.9879 18.54V24H49.251V22.53L49.6209 22.575C49.417 22.905 49.1545 23.19 48.8328 23.43C48.522 23.67 48.1626 23.855 47.7553 23.985C47.3585 24.115 46.9138 24.18 46.4204 24.18ZM53.1128 27V15.885H54.8497V17.565L54.6406 17.175C54.9623 16.715 55.3913 16.355 55.9272 16.095C56.4631 15.835 57.0743 15.705 57.7606 15.705C58.586 15.705 59.3258 15.89 59.98 16.26C60.6446 16.63 61.1649 17.135 61.54 17.775C61.926 18.415 62.119 19.135 62.119 19.935C62.119 20.735 61.926 21.455 61.54 22.095C61.1649 22.735 60.6502 23.245 59.9961 23.625C59.3419 23.995 58.5969 24.18 57.7606 24.18C57.0851 24.18 56.4688 24.05 55.9111 23.79C55.3643 23.53 54.9409 23.155 54.6406 22.665L54.9301 22.35V27H53.1128ZM57.5837 22.605C58.0983 22.605 58.5539 22.49 58.9507 22.26C59.3475 22.03 59.6583 21.715 59.8835 21.315C60.1195 20.905 60.2373 20.445 60.2373 19.935C60.2373 19.425 60.1195 18.97 59.8835 18.57C59.6583 18.17 59.3475 17.855 58.9507 17.625C58.5539 17.395 58.0983 17.28 57.5837 17.28C57.0799 17.28 56.624 17.395 56.2167 17.625C55.8199 17.855 55.5038 18.17 55.2678 18.57C55.0427 18.97 54.9301 19.425 54.9301 19.935C54.9301 20.445 55.0427 20.905 55.2678 21.315C55.5038 21.715 55.8199 22.03 56.2167 22.26C56.624 22.49 57.0799 22.605 57.5837 22.605Z" fill="#9DD9FB"/>
<path d="M21.6108 12C21.6108 17.1777 17.6132 20.9063 12.0618 20.9063C6.51054 20.9063 2.51288 17.1777 2.51288 12C2.51288 6.82234 6.51054 3.09375 12.0618 3.09375C17.6132 3.09375 21.6108 6.82234 21.6108 12Z" fill="#1FA8F6"/>
<path d="M10.2728 8.03591C10.1772 8.25128 10.1772 8.52428 10.1772 9.07031V10.2197C10.1772 10.2303 10.1772 10.2356 10.1736 10.2389C10.1701 10.2422 10.1644 10.2422 10.1531 10.2422H8.92074C8.33529 10.2422 8.04259 10.2422 7.81169 10.3314C7.50383 10.4503 7.25922 10.6785 7.13172 10.9656C7.03607 11.181 7.03607 11.454 7.03607 12C7.03607 12.546 7.03607 12.819 7.13172 13.0344C7.25922 13.3215 7.50383 13.5497 7.81169 13.6686C8.04259 13.7578 8.33529 13.7578 8.92074 13.7578H10.1531C10.1644 13.7578 10.1701 13.7578 10.1736 13.7611C10.1772 13.7644 10.1772 13.7697 10.1772 13.7803V14.9297C10.1772 15.4757 10.1772 15.7487 10.2728 15.9641C10.4003 16.2512 10.6449 16.4794 10.9528 16.5983C11.1837 16.6875 11.4764 16.6875 12.0618 16.6875C12.6473 16.6875 12.94 16.6875 13.1709 16.5983C13.4788 16.4794 13.7234 16.2512 13.8509 15.9641C13.9465 15.7487 13.9465 15.4757 13.9465 14.9297V13.7803C13.9465 13.7697 13.9465 13.7644 13.95 13.7611C13.9536 13.7578 13.9593 13.7578 13.9706 13.7578H15.203C15.7884 13.7578 16.0811 13.7578 16.312 13.6686C16.6199 13.5497 16.8645 13.3215 16.992 13.0344C17.0876 12.819 17.0876 12.546 17.0876 12C17.0876 11.454 17.0876 11.181 16.992 10.9656C16.8645 10.6785 16.6199 10.4503 16.312 10.3314C16.0811 10.2422 15.7884 10.2422 15.203 10.2422H13.9706C13.9593 10.2422 13.9536 10.2422 13.95 10.2389C13.9465 10.2356 13.9465 10.2303 13.9465 10.2197V9.07031C13.9465 8.52428 13.9465 8.25128 13.8509 8.03591C13.7234 7.74878 13.4788 7.52062 13.1709 7.40171C12.94 7.3125 12.6473 7.3125 12.0618 7.3125C11.4764 7.3125 11.1837 7.3125 10.9528 7.40171C10.6449 7.52062 10.4003 7.74878 10.2728 8.03591Z" fill="#9DD9FB" stroke="#9DD9FB"/>
<path d="M10.3444 8.19446C10.2526 8.40124 10.2526 8.66333 10.2526 9.1875V10.29C10.2526 10.3006 10.2526 10.3059 10.249 10.3092C10.2455 10.3125 10.2398 10.3125 10.2285 10.3125H9.0464C8.4844 10.3125 8.2034 10.3125 7.9817 10.3982C7.68618 10.5123 7.45134 10.7313 7.32895 11.007C7.23712 11.2137 7.23712 11.4758 7.23712 12C7.23712 12.5242 7.23712 12.7863 7.32895 12.993C7.45134 13.2687 7.68618 13.4877 7.9817 13.6019C8.2034 13.6875 8.4844 13.6875 9.0464 13.6875H10.2285C10.2398 13.6875 10.2455 13.6875 10.249 13.6908C10.2526 13.6941 10.2526 13.6994 10.2526 13.71V14.8125C10.2526 15.3367 10.2526 15.5988 10.3444 15.8055C10.4668 16.0812 10.7016 16.3002 10.9972 16.4144C11.2189 16.5 11.4999 16.5 12.0619 16.5C12.6239 16.5 12.9049 16.5 13.1266 16.4144C13.4221 16.3002 13.6569 16.0812 13.7793 15.8055C13.8711 15.5988 13.8711 15.3367 13.8711 14.8125V13.71C13.8711 13.6994 13.8711 13.6941 13.8747 13.6908C13.8782 13.6875 13.8839 13.6875 13.8953 13.6875H15.0773C15.6393 13.6875 15.9203 13.6875 16.142 13.6019C16.4375 13.4877 16.6724 13.2687 16.7948 12.993C16.8866 12.7863 16.8866 12.5242 16.8866 12C16.8866 11.4758 16.8866 11.2137 16.7948 11.007C16.6724 10.7313 16.4375 10.5123 16.142 10.3982C15.9203 10.3125 15.6393 10.3125 15.0773 10.3125H13.8953C13.8839 10.3125 13.8782 10.3125 13.8747 10.3092C13.8711 10.3059 13.8711 10.3006 13.8711 10.29V9.1875C13.8711 8.66333 13.8711 8.40124 13.7793 8.19446C13.6569 7.91884 13.4221 7.6998 13.1266 7.58565C12.9049 7.5 12.6239 7.5 12.0619 7.5C11.4999 7.5 11.2189 7.5 10.9972 7.58565C10.7016 7.6998 10.4668 7.91884 10.3444 8.19446Z" stroke="white"/>
</svg>
