<svg width="60" height="60" viewBox="0 0 60 60" fill="none" xmlns="http://www.w3.org/2000/svg">
<path d="M42.5 56.25H17.5C15.1794 56.25 12.9538 55.3282 11.3128 53.6872C9.67187 52.0463 8.75 49.8207 8.75 47.5V26.775C8.75574 25.4134 9.0721 24.071 9.675 22.85L16.8 8.57502C17.526 7.12217 18.643 5.90079 20.0255 5.04836C21.4079 4.19592 23.0009 3.74627 24.625 3.75002H42.5C44.8206 3.75002 47.0462 4.6719 48.6872 6.31284C50.3281 7.95378 51.25 10.1794 51.25 12.5V47.5C51.25 49.8207 50.3281 52.0463 48.6872 53.6872C47.0462 55.3282 44.8206 56.25 42.5 56.25ZM24.625 6.25002C23.4662 6.24662 22.3296 6.56805 21.3442 7.17785C20.3588 7.78765 19.564 8.66142 19.05 9.70002L11.9 23.975C11.4738 24.847 11.2516 25.8045 11.25 26.775V47.5C11.25 49.1576 11.9085 50.7473 13.0806 51.9194C14.2527 53.0915 15.8424 53.75 17.5 53.75H42.5C44.1576 53.75 45.7473 53.0915 46.9194 51.9194C48.0915 50.7473 48.75 49.1576 48.75 47.5V12.5C48.75 10.8424 48.0915 9.25271 46.9194 8.08061C45.7473 6.9085 44.1576 6.25002 42.5 6.25002H24.625Z" fill="#FF00D6"/>
<path d="M28.675 20.222C28.6814 19.8925 28.8152 19.5783 29.0482 19.3452C29.2813 19.1122 29.5955 18.9784 29.925 18.972C30.2566 18.972 30.5745 19.1037 30.8089 19.3382C31.0434 19.5726 31.175 19.8905 31.175 20.222L31.175 40.872C31.1751 41.1993 31.0469 41.5135 30.8178 41.7472C30.5888 41.9809 30.2772 42.1155 29.95 42.122C29.6162 42.1221 29.2956 41.9912 29.0572 41.7575C28.8188 41.5238 28.6816 41.2058 28.675 40.872L28.675 20.247L28.675 20.222Z" fill="#FF00D6"/>
<path d="M19 34.0477C19.0017 33.7148 19.1264 33.3943 19.35 33.1477C19.5879 32.917 19.9062 32.7881 20.2375 32.7881C20.5688 32.7881 20.8871 32.917 21.125 33.1477L30 41.9727L38.8 33.0727C39.0379 32.842 39.3562 32.7131 39.6875 32.7131C40.0188 32.7131 40.3371 32.842 40.575 33.0727C40.6922 33.1889 40.7852 33.3271 40.8486 33.4794C40.9121 33.6318 40.9448 33.7952 40.9448 33.9602C40.9448 34.1252 40.9121 34.2886 40.8486 34.4409C40.7852 34.5932 40.6922 34.7315 40.575 34.8477L30.875 44.5977C30.6427 44.8309 30.3292 44.9653 30 44.9727C29.8361 44.9747 29.6735 44.9423 29.5228 44.8777C29.3721 44.8132 29.2366 44.7178 29.125 44.5977L19.35 34.8977C19.1375 34.664 19.0137 34.3632 19 34.0477V34.0477Z" fill="#FF00D6"/>
</svg>
